<?xml version="1.0" standalone="no"?>
<!DOCTYPE svg PUBLIC "-//W3C//DTD SVG 20010904//EN"
 "http://www.w3.org/TR/2001/REC-SVG-20010904/DTD/svg10.dtd">
<svg version="1.0" xmlns="http://www.w3.org/2000/svg"
 width="500.000000pt" height="500.000000pt" viewBox="0 0 500.000000 500.000000"
 preserveAspectRatio="xMidYMid meet">

<g transform="translate(0.000000,500.000000) scale(0.100000,-0.100000)"
fill="#ffffff" stroke="none">
<path d="M4858 4743 c7 -3 16 -2 19 1 4 3 -2 6 -13 5 -11 0 -14 -3 -6 -6z"/>
<path d="M695 4660 c-22 -11 -31 -18 -20 -15 67 15 146 22 176 16 29 -6 20
-10 -73 -26 -60 -11 -108 -23 -108 -27 0 -4 -7 -8 -15 -8 -14 0 -14 -3 0 -29
12 -24 14 -69 13 -236 -2 -193 -8 -243 -23 -195 -6 18 -15 20 -96 20 -89 0
-148 -15 -164 -40 -5 -8 -1 -16 8 -22 13 -7 14 -14 7 -34 -6 -14 -10 -42 -10
-62 0 -57 -10 -65 -65 -57 -42 7 -47 6 -43 -11 2 -14 16 -21 56 -27 34 -6 52
-13 52 -23 0 -16 -6 -17 -75 -15 -37 2 -46 -1 -35 -8 8 -6 34 -11 58 -11 26 0
41 -4 37 -10 -3 -5 -34 -10 -68 -10 -49 -1 -58 -3 -43 -11 10 -6 35 -9 55 -5
20 3 42 2 50 -3 27 -17 -1 -31 -60 -31 -38 0 -59 -4 -59 -11 0 -8 19 -10 65
-6 49 5 65 3 65 -6 0 -25 -21 -36 -51 -25 -15 5 -38 8 -51 6 -15 -3 -4 -8 34
-17 l58 -12 -2 -42 c0 -23 -6 -45 -12 -49 -8 -6 -7 -11 3 -17 12 -8 13 -12 1
-25 -10 -13 -23 -15 -61 -10 -34 5 -49 3 -49 -5 0 -7 21 -11 56 -11 55 0 56
-1 52 -25 -3 -14 -1 -28 3 -31 5 -3 9 -16 9 -30 0 -23 -3 -24 -56 -24 -34 0
-53 -4 -49 -10 3 -5 29 -10 56 -10 47 0 50 -2 47 -22 -3 -21 -8 -23 -52 -20
-33 3 -46 0 -42 -7 4 -6 27 -11 52 -11 38 0 45 -3 42 -17 -2 -13 -16 -19 -53
-24 l-50 -5 49 -5 c30 -2 51 -9 54 -18 4 -11 -5 -13 -47 -7 -33 4 -51 3 -51
-4 0 -5 17 -10 38 -10 80 0 85 -46 5 -53 l-48 -3 53 -2 c38 -1 52 -6 49 -14
-3 -9 -21 -12 -56 -10 -30 1 -51 -2 -51 -8 0 -6 24 -10 55 -10 38 0 55 -4 55
-13 0 -26 -22 -36 -71 -30 -33 4 -49 2 -49 -6 0 -7 22 -11 59 -11 55 0 59 -1
54 -21 -5 -19 -11 -20 -59 -14 -35 4 -54 3 -54 -4 0 -5 24 -11 53 -13 43 -3
52 -6 54 -23 1 -11 3 -29 5 -40 3 -18 -3 -20 -59 -20 -33 0 -65 -3 -69 -7 -4
-5 16 -8 44 -8 63 0 82 -7 82 -31 0 -18 -5 -19 -67 -13 -49 5 -64 4 -59 -4 4
-7 33 -12 67 -12 44 0 59 -3 56 -12 -2 -8 -24 -13 -60 -13 -30 0 -59 -3 -63
-7 -4 -5 23 -8 60 -8 42 0 65 -4 61 -10 -3 -5 -28 -10 -55 -10 -27 0 -51 -3
-54 -8 -2 -4 21 -7 52 -7 51 0 57 -2 60 -22 3 -20 -1 -22 -60 -26 l-63 -3 63
-2 c34 -1 62 -6 62 -11 0 -18 -27 -30 -75 -34 l-50 -3 58 -2 c73 -2 75 -22 3
-22 -30 0 -57 -4 -60 -8 -3 -5 22 -6 56 -4 54 4 60 3 56 -14 -3 -16 -14 -19
-68 -22 -36 -2 -68 -6 -72 -10 -4 -4 24 -6 62 -4 42 2 70 0 70 -6 0 -6 -6 -13
-12 -15 -8 -3 -6 -6 5 -6 9 -1 17 -5 17 -11 0 -11 -27 -18 -90 -23 -33 -3 -27
-4 23 -5 49 -2 67 -6 67 -16 0 -9 -17 -15 -56 -18 -30 -3 -60 -11 -67 -19 -7
-8 -8 -11 -3 -6 13 10 126 9 126 -1 0 -4 -5 -13 -12 -20 -9 -9 -9 -12 0 -12 7
0 12 -10 12 -22 0 -23 -2 -23 -100 -20 -56 2 -100 0 -100 -5 0 -5 42 -9 94 -9
52 1 98 -3 102 -7 17 -17 -24 -27 -112 -27 -67 0 -95 -4 -110 -16 -18 -15 -18
-15 6 -8 14 4 69 9 124 11 78 4 97 2 94 -9 -6 -17 -107 -31 -183 -24 -47 4
-56 3 -41 -6 13 -7 53 -8 124 -3 96 6 105 5 92 -9 -11 -14 -31 -16 -133 -12
-73 3 -115 1 -106 -5 8 -5 65 -9 127 -9 107 0 112 -1 112 -21 0 -16 -4 -19
-17 -13 -36 16 -115 15 -188 -1 -41 -9 -77 -20 -80 -25 -3 -4 19 -2 47 6 73
19 212 19 228 -1 15 -18 22 -18 -135 -15 -98 1 -124 -2 -140 -15 -20 -16 -19
-16 5 -9 25 8 271 7 279 -2 13 -13 -23 -20 -127 -25 -93 -4 -104 -6 -52 -9 36
-2 91 -2 123 -1 36 2 57 -1 57 -8 0 -7 -28 -11 -77 -12 -132 0 -211 -13 -227
-35 -13 -17 -13 -19 1 -23 9 -2 23 -10 32 -18 13 -13 34 -15 131 -9 91 5 120
3 135 -8 16 -12 2 -13 -113 -12 -97 1 -134 -2 -144 -12 -11 -11 -5 -12 34 -7
42 6 47 5 53 -15 4 -13 10 -19 14 -14 7 11 361 5 361 -6 0 -15 -102 -22 -229
-15 -105 6 -133 4 -165 -9 -22 -9 -36 -19 -33 -22 3 -3 84 -7 179 -7 108 -1
173 -6 173 -12 0 -5 -16 -10 -35 -10 -253 -4 -291 -6 -285 -15 4 -6 -7 -10
-24 -10 -17 0 -31 -4 -31 -8 0 -4 42 -6 93 -5 50 2 126 0 167 -4 70 -7 64 -8
-82 -13 -115 -4 -161 -9 -170 -19 -11 -12 -10 -13 4 -8 22 8 293 11 305 4 14
-9 254 247 283 303 15 28 91 123 103 128 4 2 16 21 27 43 11 21 31 46 45 55
14 9 25 25 25 35 0 10 4 20 9 24 5 3 53 69 105 148 53 78 128 187 167 242 72
103 191 280 221 331 10 16 22 36 27 44 5 8 19 35 31 60 31 64 69 103 87 88 17
-14 159 -27 357 -33 132 -4 164 -2 269 20 131 27 181 31 224 14 67 -25 151
-151 125 -187 -7 -9 -15 -24 -18 -32 -3 -8 -12 -28 -22 -45 -9 -16 -32 -61
-52 -100 -20 -38 -58 -104 -85 -144 -26 -41 -55 -93 -65 -115 -10 -23 -67
-120 -127 -216 -60 -96 -129 -213 -153 -259 -24 -46 -61 -105 -81 -132 -21
-26 -47 -67 -59 -91 -11 -23 -45 -76 -75 -117 -30 -41 -55 -80 -55 -88 0 -22
-70 -147 -118 -213 -2 -3 -9 2 -15 10 -7 8 -28 22 -47 31 -19 10 -59 38 -88
63 l-53 46 -427 -1 c-357 0 -437 3 -487 16 -33 9 -67 24 -75 34 -12 15 -34 19
-125 23 -60 3 -123 2 -140 -2 -18 -5 19 -8 98 -9 83 -1 126 -5 122 -11 -3 -5
-45 -10 -93 -11 -48 0 -105 -4 -127 -9 -28 -7 2 -8 99 -5 79 2 135 1 130 -4
-5 -5 -59 -11 -121 -13 -101 -3 -114 -6 -133 -26 l-21 -22 53 1 c29 0 85 3
125 7 76 8 97 6 87 -9 -3 -5 -26 -9 -52 -9 -95 0 -182 -13 -182 -26 0 -7 -8
-14 -18 -16 -9 -2 24 -2 75 0 100 5 152 -5 98 -18 l-30 -8 28 -1 c15 0 27 -7
27 -14 0 -10 -23 -12 -98 -9 -55 2 -108 -1 -122 -7 -20 -9 -7 -11 65 -10 123
1 131 1 120 -10 -6 -5 -59 -14 -120 -20 l-110 -10 108 3 c78 2 107 -1 107 -9
0 -8 -31 -14 -96 -17 -59 -3 -100 -10 -107 -18 -10 -10 -8 -11 8 -5 11 4 56 9
100 12 l80 4 -24 -20 c-16 -14 -38 -21 -70 -22 -25 -1 -57 -5 -71 -9 -19 -6
-11 -8 30 -7 50 2 55 0 58 -20 2 -13 9 -24 15 -25 7 0 -10 -5 -38 -9 -28 -4 7
-5 80 -2 253 11 353 13 667 15 175 2 318 0 318 -3 0 -12 -142 -19 -414 -19
-154 0 -277 -2 -275 -4 2 -2 183 -6 402 -10 275 -5 397 -4 392 4 -4 6 8 10 32
9 33 -1 35 -2 13 -8 -25 -7 -25 -8 -3 -15 12 -4 33 -4 46 -1 30 8 70 -3 62
-16 -7 -11 -387 -12 -470 0 -33 4 -206 5 -385 1 -331 -6 -306 -8 193 -15 150
-3 237 -8 280 -19 36 -8 132 -17 232 -20 94 -3 199 -9 235 -15 118 -18 147
-21 120 -13 -49 15 8 23 81 10 125 -20 67 -32 -194 -38 l-242 -6 175 -3 c96
-2 309 -4 472 -5 164 -1 300 -5 304 -9 4 -4 -39 -7 -96 -7 -168 0 -110 -7 115
-14 115 -4 214 -11 219 -16 10 -10 -214 -15 -509 -11 -118 1 -155 -2 -175 -13
-23 -14 -16 -15 95 -15 66 0 238 4 382 9 261 9 303 7 303 -13 0 -7 -41 -8
-122 -5 -68 3 -139 2 -158 -2 -21 -5 27 -8 125 -10 88 -2 177 -3 197 -4 20 -1
43 -7 49 -13 11 -11 6 -13 -22 -14 l-34 -2 40 -7 c35 -6 30 -8 -35 -10 l-75
-3 60 -7 c68 -9 206 -11 188 -3 -26 10 -12 19 23 15 23 -3 32 -7 24 -12 -8 -5
11 -11 46 -15 32 -3 71 -11 86 -17 36 -14 76 -3 110 29 l28 26 297 8 c277 7
521 24 533 36 3 3 -38 3 -90 -1 -373 -26 -740 -35 -740 -18 0 11 30 55 48 70
12 9 12 12 3 12 -11 0 -11 3 0 16 8 9 14 24 14 32 0 26 24 25 31 -2 5 -22 12
-26 40 -26 19 0 34 5 34 10 0 13 97 13 105 0 8 -13 -5 -17 -100 -27 l-80 -8
63 -3 c93 -4 75 -22 -25 -23 l-88 -2 120 -9 c72 -5 139 -5 170 0 l50 10 -55 2
-55 3 40 7 40 7 -50 2 c-36 1 -46 4 -35 11 20 13 100 13 100 0 0 -12 117 -13
124 -1 7 11 -43 21 -118 22 -56 1 -58 1 -31 11 17 6 33 16 37 21 4 6 90 14
210 19 258 10 290 19 51 13 l-183 -4 15 30 c17 32 8 30 200 33 44 1 162 2 263
4 125 1 182 5 182 13 0 8 -57 9 -204 4 -137 -5 -205 -4 -210 3 -8 13 85 43
244 77 69 15 140 33 159 41 18 8 45 14 60 14 15 0 89 15 166 34 76 19 144 32
151 29 7 -2 29 4 51 15 21 11 60 23 86 27 26 4 50 11 53 16 8 14 -53 11 -110
-5 -97 -27 -181 -47 -261 -62 -98 -19 -145 -30 -210 -51 -27 -9 -79 -22 -115
-28 -121 -23 -189 -41 -252 -69 -36 -15 -38 -15 -48 4 -9 16 -6 22 19 35 17 8
62 20 102 25 40 6 78 15 84 20 6 5 79 23 161 39 218 44 273 58 382 96 54 20
130 42 168 51 38 8 83 19 99 24 26 8 24 9 -19 7 -54 -1 -69 11 -88 76 -15 50
-5 56 87 59 l70 2 -75 5 c-61 5 -75 9 -78 24 -6 29 18 49 51 43 35 -7 89 18
81 38 -4 12 -9 11 -25 -5 -23 -23 -39 -24 -65 -4 -27 21 -84 18 -204 -10 -58
-14 -123 -25 -145 -25 -22 0 -110 -11 -195 -24 -85 -13 -200 -30 -255 -36
-130 -15 -180 -28 -201 -51 -21 -23 -50 -25 -58 -4 -4 12 -27 15 -113 15 -74
0 -104 3 -97 10 13 13 182 51 244 54 25 2 58 8 73 15 38 15 98 15 77 0 -11 -8
-6 -9 20 -5 19 3 89 10 155 16 66 6 147 18 179 26 46 11 235 33 300 34 4 0 6
7 2 15 -3 8 2 21 10 30 14 13 12 15 -19 15 -41 0 -67 8 -67 21 0 11 150 4 256
-13 50 -7 77 -7 90 0 17 10 17 11 -6 16 -46 9 -144 18 -217 20 -92 1 -99 8
-79 77 9 29 16 63 16 77 0 20 4 23 28 18 15 -3 59 -2 97 3 l70 8 -98 2 c-94 1
-98 2 -109 26 -14 31 -10 36 44 41 76 9 198 42 198 54 0 13 -26 13 -70 0 -19
-6 -89 -19 -155 -30 -66 -11 -165 -28 -220 -39 -106 -21 -303 -57 -370 -66
-36 -5 -135 -27 -265 -57 -84 -20 -90 -20 -90 -10 0 5 15 19 33 31 17 11 25
21 17 21 -13 1 -13 2 0 9 29 16 63 24 56 12 -9 -14 -8 -14 61 4 32 9 81 18
108 20 52 5 110 16 181 34 23 6 113 22 200 35 153 24 416 76 499 99 22 6 44
17 48 24 11 18 31 17 24 -1 -6 -15 29 -30 38 -17 10 17 -28 49 -72 60 -65 17
-78 29 -57 52 15 17 15 19 -10 30 -26 12 -35 42 -15 54 5 4 9 19 7 33 -1 15 2
26 7 26 6 -1 25 -4 43 -7 18 -4 32 -2 32 3 0 6 -11 10 -24 10 -38 0 -56 10
-56 31 0 32 29 67 61 74 16 4 37 17 47 30 13 16 32 25 58 28 l39 4 -44 1 c-24
1 -59 11 -77 23 -31 19 -58 22 -266 30 -128 5 -247 14 -265 20 -18 6 -50 8
-71 5 -20 -3 -75 -1 -122 5 -47 6 -103 12 -125 13 -22 2 -69 6 -105 9 l-65 7
45 -15 c25 -9 72 -18 105 -21 33 -3 94 -9 135 -14 41 -5 123 -9 182 -9 59 -1
119 -6 135 -12 16 -7 99 -12 198 -13 148 -1 174 -4 198 -20 37 -25 37 -51 0
-41 -16 4 -41 7 -58 6 -44 -3 -552 -127 -611 -150 -84 -32 -284 -65 -284 -46
0 3 7 17 16 30 12 18 25 25 48 25 51 0 106 12 106 23 0 6 -14 7 -35 3 -115
-20 -105 -21 -105 8 0 25 2 27 35 20 24 -4 35 -2 35 6 0 6 -8 10 -17 9 -42 -4
-43 1 -16 55 17 36 24 62 20 78 -6 22 -14 26 -65 32 -33 4 -67 12 -76 19 -15
11 -16 15 -2 49 14 33 14 38 1 52 -9 8 -32 18 -53 21 -60 9 -232 56 -297 81
-68 26 -277 84 -301 84 -9 0 -52 16 -95 36 -103 46 -177 58 -247 40 l-52 -14
-15 28 c-8 16 -22 75 -31 132 -11 69 -27 129 -50 179 -24 54 -34 91 -34 126 0
27 -5 54 -10 59 -15 15 -50 143 -50 184 0 26 -3 31 -10 20 -17 -26 -11 -77 21
-172 18 -55 28 -104 25 -119 -3 -18 6 -50 29 -97 18 -39 37 -92 40 -119 4 -26
16 -90 27 -142 l20 -95 -29 -20 c-15 -12 -44 -36 -64 -53 -20 -18 -39 -33 -42
-33 -3 0 -15 19 -25 43 -58 130 -155 172 -307 133 -97 -24 -319 -42 -351 -27
-26 11 -26 12 -9 31 10 11 16 22 13 25 -3 3 -11 -1 -18 -10 -7 -8 -27 -16 -44
-16 -17 -1 -23 -3 -13 -6 26 -7 20 -23 -9 -23 -14 0 -23 4 -20 9 3 4 -5 6 -18
4 -31 -6 -42 23 -19 50 29 31 133 79 133 60 0 -5 -16 -17 -35 -27 -19 -10 -42
-28 -52 -40 l-18 -20 30 18 c17 11 39 25 50 33 11 7 30 13 43 13 21 0 22 -2
12 -15 -7 -8 -8 -15 -2 -15 5 0 15 6 21 14 10 12 9 20 -4 40 -10 14 -18 26
-19 26 -28 0 -119 -39 -142 -62 -21 -20 -34 -26 -39 -18 -11 18 23 58 73 84
26 14 40 25 31 26 -9 0 -35 -13 -57 -30 -23 -16 -44 -30 -47 -30 -12 0 -3 26
18 49 21 25 21 25 0 7 -30 -25 -40 -15 -49 50 -5 46 -3 58 12 75 27 30 110 70
131 63 15 -5 16 -4 3 5 -25 18 -45 13 -100 -24 -29 -19 -53 -35 -55 -35 -4 0
-25 60 -25 71 0 5 6 9 14 9 7 0 19 6 25 14 18 21 97 56 128 56 20 0 24 3 16
11 -15 15 -64 -1 -126 -41 l-47 -30 0 26 c0 21 10 30 65 55 35 16 76 29 90 29
16 0 24 4 20 11 -9 14 -58 2 -117 -27 -60 -30 -72 -31 -58 -3 13 24 83 58 120
59 16 0 21 3 14 10 -13 13 -74 -4 -107 -30 -34 -27 -51 -27 -36 1 13 25 94 63
127 61 15 -1 22 3 19 11 -7 23 -37 19 -93 -13 -57 -32 -78 -34 -54 -5 20 24
59 42 109 50 30 5 39 10 30 16 -18 11 -55 2 -106 -27 -48 -28 -53 -29 -53 -11
0 20 120 87 154 87 20 0 27 3 20 10 -14 14 -76 -5 -132 -41 -45 -28 -61 -26
-48 7 7 18 88 54 124 55 24 0 25 1 7 8 -24 10 -58 1 -106 -28 l-36 -22 0 26
c-1 28 50 75 80 75 8 0 29 8 46 17 25 15 35 16 61 6 27 -10 31 -10 28 4 -4 24
-49 32 -90 18 -20 -6 -68 -33 -108 -60 -61 -41 -71 -51 -65 -69 10 -29 25
-239 31 -440 3 -116 9 -180 20 -204 18 -43 6 -55 -40 -40 -60 19 -69 16 -101
-39 -16 -28 -40 -69 -53 -90 l-22 -38 5 250 c3 138 5 257 4 265 -1 8 -2 161
-3 340 l-1 325 -96 -1 c-77 0 -100 -4 -114 -17 -18 -19 -45 -23 -45 -7 0 6 7
10 15 10 8 0 14 5 13 11 -5 20 110 41 182 34 36 -4 85 -8 110 -10 25 -1 72 -8
105 -14 33 -7 121 -16 195 -21 74 -5 155 -12 180 -15 25 -4 74 -6 110 -5 84 2
106 20 25 20 -32 0 -117 8 -187 17 l-128 17 0 60 c0 34 -4 67 -8 74 -12 18
-69 32 -136 32 -63 0 -144 12 -236 36 -133 34 -230 54 -262 54 -43 0 -150 19
-163 29 -5 5 -57 9 -115 10 -87 1 -112 -2 -145 -19z m411 -39 c66 -10 130 -24
142 -30 11 -6 34 -11 50 -11 17 0 58 -9 93 -19 35 -10 109 -22 164 -25 174
-11 194 -25 177 -116 l-8 -45 -49 3 c-28 2 -68 8 -90 14 -48 12 -176 29 -225
29 -60 0 -193 -23 -227 -38 -21 -10 -34 -24 -37 -41 -5 -21 1 -870 7 -1187 3
-127 -4 -246 -13 -240 -9 6 -13 -35 -14 -161 -1 -33 -15 -62 -85 -167 -72
-109 -87 -127 -105 -121 -12 3 -29 8 -38 10 -10 3 -18 1 -18 -4 0 -9 -60 -23
-112 -26 -21 -1 -28 -7 -32 -29 -3 -16 -2 -37 4 -46 8 -17 12 -17 77 0 72 18
86 17 62 -5 -23 -23 -122 -47 -131 -33 -5 8 -8 7 -8 -4 0 -8 -7 -24 -15 -35
-14 -17 -15 -9 -13 86 3 97 5 105 23 107 11 2 48 9 83 17 61 14 95 12 119 -6
7 -6 14 -5 18 2 12 19 20 751 10 805 -4 17 0 48 8 70 8 24 10 52 6 70 -4 17
-7 75 -8 130 -1 55 -6 118 -11 140 -7 30 -8 15 -4 -57 l4 -98 -90 0 c-80 0
-90 2 -90 18 0 32 22 42 94 42 57 1 67 3 52 12 -11 6 -43 8 -77 5 l-59 -5 0
35 0 36 62 -7 c48 -5 59 -3 50 6 -6 6 -33 11 -59 11 -49 0 -63 9 -63 40 0 15
10 17 78 17 60 1 73 3 58 11 -11 7 -42 9 -83 4 l-64 -7 3 34 3 33 70 5 c45 3
63 8 52 13 -27 11 -125 9 -132 -3 -11 -18 -26 -10 -23 13 2 14 10 22 23 23 11
0 28 4 38 8 10 5 36 6 57 3 22 -3 42 -1 45 3 8 13 -17 18 -71 12 -42 -4 -52
-2 -58 13 -11 30 11 40 94 40 44 0 80 3 80 6 0 12 -56 17 -105 9 -74 -13 -75
-13 -75 19 0 33 17 41 95 41 28 0 57 5 65 11 14 10 -57 8 -135 -3 -14 -2 -21
4 -23 20 -3 21 0 22 72 22 50 0 76 4 76 11 0 8 -26 10 -90 5 -83 -7 -90 -6
-89 11 0 10 3 13 6 5 3 -8 10 -6 21 8 15 18 29 21 99 22 53 0 80 4 76 11 -4 6
-38 8 -90 4 -76 -6 -84 -4 -81 11 6 30 54 45 110 34 35 -7 48 -6 45 2 -2 6
-33 12 -71 14 -45 2 -66 7 -63 15 5 15 64 30 99 25 15 -3 28 0 28 5 0 6 -28 8
-70 5 -68 -5 -70 -4 -83 21 -14 28 -11 65 4 56 5 -4 9 5 9 18 0 28 32 39 113
37 29 -1 47 3 47 10 0 6 -10 10 -22 9 -13 -2 -28 -1 -33 3 -6 3 -30 2 -55 -2
-25 -5 -47 -6 -49 -4 -3 2 0 17 5 32 9 26 12 27 92 30 45 2 82 7 82 12 0 17
-41 21 -95 10 -30 -6 -60 -8 -66 -4 -22 13 19 25 106 31 57 4 83 9 76 16 -9 9
-38 6 -186 -15 -14 -2 -20 4 -21 24 -3 30 9 43 27 32 8 -4 7 -9 -2 -15 -21
-13 142 -11 180 2 20 7 31 18 31 30 0 23 -3 23 146 0z m-203 -16 c1 -5 -15
-11 -35 -13 -36 -3 -52 10 -25 22 19 8 57 2 60 -9z m-173 -90 c0 -8 -4 -15
-10 -15 -5 0 -10 7 -10 15 0 8 5 15 10 15 6 0 10 -7 10 -15z m655 -219 c-7
-35 -8 -36 -52 -36 -24 0 -76 -5 -114 -12 -80 -13 -95 -6 -80 35 14 36 53 59
93 55 l33 -3 -40 -14 c-67 -23 -62 -31 6 -10 39 12 76 18 95 14 24 -4 33 -1
38 11 12 31 28 0 21 -40z m-669 -73 c-11 -11 -19 6 -11 24 8 17 8 17 12 0 3
-10 2 -21 -1 -24z m660 -75 c-3 -51 -2 -212 2 -358 5 -146 5 -275 0 -287 -5
-15 -13 -21 -23 -17 -20 8 -164 -16 -171 -27 -7 -12 -1 -11 83 6 39 8 79 12
87 9 14 -5 16 -28 16 -151 0 -81 -5 -163 -12 -184 -10 -34 -16 -39 -47 -44
-20 -3 -54 -10 -76 -15 -33 -7 -28 -7 23 -3 39 4 62 2 62 -5 0 -7 -58 -100
-74 -118 -1 -1 -22 -5 -48 -8 -41 -6 -47 -5 -42 8 3 9 21 18 40 22 19 3 34 10
34 15 0 5 -12 4 -26 -1 -39 -15 -54 -12 -54 10 0 25 35 40 93 40 32 0 38 3 29
12 -9 9 -25 9 -62 2 l-50 -11 0 28 c0 26 3 28 73 39 104 16 111 20 32 15 -38
-2 -80 -7 -92 -11 -20 -6 -23 -3 -23 24 l0 30 96 7 c119 9 114 21 -7 16 -73
-2 -89 0 -89 12 0 11 24 18 95 28 52 7 95 16 95 21 0 5 -15 7 -32 4 -18 -3
-55 -8 -82 -11 -27 -4 -55 -9 -63 -12 -11 -4 -14 0 -11 18 3 27 30 36 111 38
28 1 47 6 47 12 0 12 -53 9 -127 -7 -29 -6 -33 -4 -33 15 0 29 35 41 115 41
35 0 66 4 69 9 11 17 -26 21 -100 10 -81 -12 -97 -8 -71 19 13 12 36 17 88 19
39 1 73 4 76 7 13 13 -54 18 -99 7 -91 -21 -88 -23 -88 79 0 89 0 91 28 102
15 6 62 13 104 16 43 2 75 8 72 13 -8 14 -86 11 -140 -6 -61 -18 -64 -18 -64
0 0 8 12 21 28 29 37 19 139 37 168 30 13 -4 24 -2 24 4 0 19 -30 21 -97 6
-37 -9 -80 -18 -95 -21 l-28 -5 0 275 0 276 38 6 c20 4 44 8 52 10 8 1 46 3
84 4 l68 1 -6 -92z m-851 -17 c-11 -5 -42 -12 -69 -16 -45 -6 -49 -5 -37 9 10
11 30 16 70 15 38 0 50 -3 36 -8z m105 -11 c0 -5 -21 -10 -46 -10 -27 0 -43 4
-39 10 3 6 24 10 46 10 21 0 39 -4 39 -10z m-115 -40 c-12 -5 1 -6 35 -3 44 4
58 2 70 -12 11 -13 11 -18 1 -25 -9 -5 -10 -10 -2 -14 27 -17 5 -26 -64 -26
-62 0 -73 2 -69 15 5 11 -1 15 -25 15 -36 0 -40 12 -8 28 17 8 18 11 5 11 -10
1 -18 6 -18 11 0 6 21 10 48 9 35 0 42 -3 27 -9z m192 -32 c-3 -7 -5 -2 -5 12
0 14 2 19 5 13 2 -7 2 -19 0 -25z m-98 -67 c23 -14 -6 -23 -51 -16 -29 5 -37
10 -27 16 18 11 60 11 78 0z m39 -35 c4 -4 0 -12 -9 -16 -13 -8 -15 -18 -8
-62 6 -33 5 -54 -1 -56 -14 -5 -12 -30 2 -34 23 -8 -4 -29 -30 -24 -15 3 -51
7 -80 8 -29 0 -55 5 -58 10 -4 5 -16 13 -28 18 l-21 9 23 7 c28 8 29 24 1 24
-11 0 -17 5 -14 10 3 6 1 10 -4 10 -6 0 -11 5 -11 10 0 6 9 10 21 10 12 0 18
-4 13 -11 -4 -7 -1 -10 6 -7 23 7 23 28 0 28 -12 0 -18 5 -15 10 3 6 -1 10 -9
10 -9 0 -16 5 -16 10 0 6 9 10 20 10 11 0 20 -3 20 -8 0 -4 34 -7 75 -7 41 0
75 3 75 8 0 4 -33 7 -72 7 -82 0 -118 13 -79 28 28 10 188 8 199 -2z m68 -33
c-10 -10 -19 5 -10 18 6 11 8 11 12 0 2 -7 1 -15 -2 -18z m-353 10 c-7 -2 -19
-2 -25 0 -7 3 -2 5 12 5 14 0 19 -2 13 -5z m1247 -70 c0 -41 -3 -54 -10 -43
-13 20 -13 100 0 100 6 0 10 -26 10 -57z m-1170 -78 c0 -2 -9 -9 -20 -15 -16
-9 -20 -8 -20 5 0 8 9 15 20 15 11 0 20 -2 20 -5z m144 -35 c28 0 42 -10 50
-36 6 -21 5 -21 -46 -12 -29 6 -72 7 -95 4 -35 -4 -41 -3 -36 9 3 9 -1 23 -8
32 -13 15 -9 16 50 10 35 -4 73 -7 85 -7z m136 -20 c0 -11 -7 -20 -15 -20 -17
0 -18 2 -9 24 9 23 24 20 24 -4z m-277 -5 c-1 -5 -14 -11 -28 -13 -19 -3 -24
0 -19 13 7 17 51 17 47 0z m284 -41 c7 -18 -7 -46 -25 -52 -8 -2 -12 9 -12 32
0 38 25 51 37 20z m-303 -3 c3 -5 -1 -11 -9 -15 -9 -3 -15 0 -15 9 0 16 16 20
24 6z m184 -21 c-4 -23 0 -30 16 -32 27 -4 32 -28 7 -35 -25 -6 -28 -23 -3
-24 14 0 13 -3 -5 -16 -27 -18 -30 -41 -8 -50 14 -5 14 -8 -1 -24 -16 -18 -16
-19 -1 -19 22 0 21 -9 0 -26 -17 -12 -16 -13 5 -14 12 0 22 -4 22 -9 0 -5 -10
-12 -22 -16 -22 -7 -22 -7 -3 -12 29 -8 49 -43 24 -43 -5 0 -7 5 -4 10 3 6 2
10 -4 10 -15 0 -23 -18 -10 -26 36 -22 -122 -35 -176 -14 -17 7 -24 7 -20 0 3
-6 -3 -10 -14 -10 -12 0 -21 2 -21 5 0 10 35 42 55 50 19 8 19 9 -2 12 -27 5
-30 21 -7 30 12 4 8 9 -15 21 -17 8 -31 21 -31 28 0 19 28 18 32 -2 3 -13 5
-13 23 0 20 15 20 15 -2 16 -26 0 -31 15 -7 24 16 6 11 26 -7 26 -6 0 -7 -5
-4 -10 7 -11 -22 -26 -32 -16 -3 3 0 13 8 22 11 13 11 18 2 21 -7 3 -13 20
-13 40 0 41 25 42 25 0 1 -31 9 -42 26 -32 8 6 7 10 -5 17 -13 7 -14 13 -6 23
8 10 8 15 -1 20 -8 6 -8 10 2 15 10 7 10 12 1 23 -10 11 -9 17 0 24 22 18 41
21 112 22 l68 1 -4 -30z m1022 18 c0 -7 3 -24 6 -38 5 -17 4 -22 -4 -15 -16
15 -26 65 -13 65 6 0 11 -6 11 -12z m-910 -88 c0 -22 -16 -35 -25 -20 -9 14 4
52 16 45 5 -4 9 -15 9 -25z m181 -51 c13 -25 16 -137 5 -195 l-8 -41 -87 -21
c-47 -11 -75 -21 -61 -21 14 0 46 6 73 14 29 9 47 10 47 4 0 -6 9 -8 20 -4 16
5 20 2 20 -18 0 -30 -16 -35 -118 -38 -54 -2 -76 2 -84 12 -8 11 -9 10 -4 -4
3 -10 6 -23 6 -28 0 -5 11 -4 26 1 14 6 58 10 97 10 l72 0 3 -75 c5 -111 5
-111 -86 -119 -42 -4 -92 -9 -111 -11 -27 -4 -32 -2 -27 11 3 9 6 22 6 30 0 9
5 12 10 9 6 -3 10 -1 10 4 0 7 29 11 73 12 39 1 83 5 97 10 16 5 -12 7 -82 6
-91 -2 -108 0 -108 13 1 37 15 42 93 35 43 -4 82 -3 92 2 20 12 -122 26 -169
17 l-29 -5 6 83 c4 46 7 98 7 116 l0 32 80 -4 c44 -2 82 0 85 4 5 8 -53 20
-102 20 -27 0 -32 4 -36 28 -4 25 -4 25 -6 -5 -1 -33 -17 -45 -26 -20 -3 6 -1
41 3 77 6 58 9 65 30 66 12 1 25 4 29 8 3 3 37 6 74 6 59 0 70 -3 80 -21z
m768 -142 c-1 -45 -2 -48 -9 -22 -11 45 -11 87 0 80 6 -3 9 -30 9 -58z m-1251
11 c-6 -18 -28 -21 -28 -4 0 9 7 16 16 16 9 0 14 -5 12 -12z m2 -38 c0 -5 -4
-10 -10 -10 -5 0 -10 5 -10 10 0 6 5 10 10 10 6 0 10 -4 10 -10z m230 -64 c0
-3 -4 -8 -10 -11 -5 -3 -10 -1 -10 4 0 6 5 11 10 11 6 0 10 -2 10 -4z m2345
-42 c41 -19 82 -34 93 -34 11 0 39 -9 63 -20 24 -11 57 -20 74 -20 16 0 88
-18 160 -41 71 -22 157 -49 190 -59 33 -11 86 -22 118 -26 32 -3 57 -11 57
-18 -1 -25 -42 -101 -98 -179 -33 -45 -76 -113 -97 -152 -21 -38 -67 -112
-102 -164 -36 -51 -73 -113 -83 -136 -10 -23 -39 -76 -65 -116 -207 -326 -319
-502 -389 -609 -45 -69 -90 -141 -100 -160 -11 -19 -25 -42 -33 -51 -14 -17
-75 -32 -128 -31 -49 0 -178 19 -210 30 -16 6 -88 30 -160 53 -71 24 -143 50
-160 60 -16 9 -56 20 -87 24 -42 5 -73 17 -119 47 -34 22 -78 42 -96 45 -48 8
-117 -22 -153 -65 -46 -56 -37 -15 15 64 25 37 45 77 45 89 0 11 20 46 45 77
25 32 45 64 45 71 0 8 9 22 21 33 12 10 30 37 41 59 12 22 42 72 68 110 26 39
66 104 89 145 70 125 136 234 178 296 22 33 54 86 71 119 17 33 80 148 141
255 121 211 155 251 280 320 53 29 60 30 135 24 58 -5 96 -15 151 -40z m-2422
30 c27 -5 37 -11 37 -25 0 -11 5 -19 12 -19 9 0 9 -3 1 -11 -8 -8 -21 -8 -47
1 -23 7 -60 9 -107 4 -53 -5 -70 -4 -65 5 4 6 2 11 -3 11 -6 0 -11 7 -11 15 0
20 17 19 29 -2 10 -17 15 -14 9 5 -2 4 17 10 42 13 25 3 50 7 55 7 6 1 27 -1
48 -4z m-163 -74 c0 -5 -4 -10 -10 -10 -5 0 -10 5 -10 10 0 6 5 10 10 10 6 0
10 -4 10 -10z m181 -1 c13 -7 18 -16 14 -28 -3 -11 0 -21 9 -24 10 -4 13 -1 9
9 -3 7 0 14 6 14 26 0 8 -41 -24 -55 -18 -8 -17 -9 8 -13 15 -2 25 -8 22 -13
-4 -5 -1 -9 4 -9 20 0 11 -22 -20 -51 -31 -29 -31 -49 -1 -49 13 0 12 -5 -8
-20 -14 -10 -21 -22 -17 -26 4 -4 14 1 21 12 8 10 18 16 22 12 11 -12 -13 -58
-31 -58 -8 0 -15 -4 -15 -10 0 -5 9 -10 20 -10 11 0 20 -4 20 -10 0 -5 -4 -10
-10 -10 -5 0 -7 -7 -4 -15 4 -8 15 -15 25 -15 10 0 19 -4 19 -10 0 -5 -11 -10
-25 -10 -14 0 -25 4 -25 10 0 6 -9 6 -23 1 -13 -5 -52 -12 -88 -16 -53 -6 -67
-4 -78 9 -7 9 -10 23 -7 32 4 11 -2 26 -15 41 -13 12 -19 26 -15 30 4 4 12 1
17 -7 8 -11 9 -8 5 13 -5 19 -2 29 9 33 21 8 19 27 -5 42 -21 13 -27 42 -9 42
6 0 8 -7 5 -16 -4 -10 -1 -14 6 -11 7 2 13 12 13 23 0 10 4 25 9 32 5 9 1 15
-14 19 l-23 6 23 17 23 17 -27 7 c-28 7 -36 26 -10 26 8 0 12 -4 9 -10 -4 -6
1 -7 11 -3 16 6 16 7 0 19 -16 11 -15 13 6 28 26 19 128 22 159 5z m-181 -129
c0 -5 -4 -10 -10 -10 -5 0 -10 5 -10 10 0 6 5 10 10 10 6 0 10 -4 10 -10z
m240 -65 c0 -8 -9 -15 -19 -15 -24 0 -36 16 -19 23 24 10 38 7 38 -8z m-236
-24 c3 -5 -1 -14 -8 -20 -16 -13 -32 2 -21 19 8 12 22 13 29 1z m492 -12 c3
-6 -1 -18 -10 -27 -12 -12 -37 -16 -106 -16 -61 -1 -90 -5 -90 -13 0 -11 45
-10 163 1 36 4 38 3 35 -22 l-3 -27 -110 0 -110 0 0 45 c0 25 5 45 10 46 6 0
17 4 25 7 37 16 187 20 196 6z m2851 -55 c3 -8 -20 -71 -53 -142 -32 -70 -70
-159 -85 -199 -15 -40 -43 -94 -62 -120 -20 -27 -39 -62 -43 -78 -14 -56 -90
-190 -168 -294 -51 -69 -107 -162 -161 -271 -46 -92 -95 -180 -109 -197 -14
-17 -26 -38 -26 -46 0 -24 -91 -222 -109 -237 -9 -7 -41 -58 -41 -65 0 -15 18
-2 31 23 7 15 24 41 36 57 12 17 36 66 53 110 18 44 44 100 59 125 14 25 35
59 44 75 10 17 29 55 43 85 66 144 111 224 189 330 86 118 175 273 175 306 0
11 17 39 36 64 33 40 36 42 30 17 -12 -50 -134 -305 -174 -364 -22 -33 -47
-82 -55 -110 -20 -66 -31 -86 -83 -153 -59 -76 -211 -378 -219 -436 -2 -12
-19 -53 -39 -92 -20 -39 -36 -82 -35 -94 0 -23 0 -23 10 2 6 13 16 31 23 40 7
8 30 67 52 130 48 144 153 354 231 462 35 49 65 103 73 132 8 28 35 82 61 120
26 39 59 103 74 141 16 39 65 151 110 251 46 99 100 224 120 277 31 78 41 95
52 85 18 -14 16 -21 -87 -243 -49 -104 -111 -244 -138 -310 -28 -66 -96 -221
-151 -344 -56 -123 -99 -226 -97 -228 2 -2 13 15 24 39 11 24 48 102 82 173
34 72 70 153 80 180 10 28 31 77 47 110 16 33 36 76 43 95 18 47 27 57 41 43
9 -9 8 -18 -5 -37 -9 -14 -16 -33 -16 -43 0 -10 -6 -27 -13 -38 -8 -11 -33
-63 -56 -115 -24 -52 -56 -122 -71 -155 -15 -33 -46 -103 -69 -155 -67 -150
-105 -224 -118 -228 -19 -6 -16 23 7 60 11 18 20 40 19 48 0 8 -11 -5 -24 -30
-13 -25 -37 -58 -54 -74 -19 -19 -27 -33 -22 -40 6 -7 -10 -49 -40 -111 -26
-55 -48 -106 -48 -112 -1 -23 -45 -103 -57 -103 -6 0 -19 -20 -28 -45 -10 -25
-23 -45 -30 -45 -14 0 -54 28 -98 68 -21 19 -40 26 -75 27 -29 1 -77 15 -120
33 -39 18 -84 32 -100 32 -56 0 -224 53 -210 66 3 3 27 -1 54 -9 26 -8 79 -18
116 -21 37 -4 84 -15 105 -26 45 -23 185 -46 190 -31 2 6 14 26 27 45 13 20
19 36 13 38 -13 5 39 108 170 341 55 98 98 185 95 193 -6 17 18 58 123 204 45
63 89 133 98 155 10 22 25 49 36 60 10 11 34 54 54 95 19 41 40 82 45 90 5 8
20 38 33 65 13 28 56 110 96 183 55 101 71 138 66 157 -7 28 13 36 23 9z
m-2537 -9 c-7 -8 -22 -15 -34 -16 -20 0 -20 -1 -1 -8 19 -8 19 -8 -4 -16 -14
-4 -19 -10 -13 -14 8 -5 3 -20 -15 -45 -15 -21 -29 -32 -31 -26 -2 6 1 17 7
23 6 6 11 28 11 48 0 59 7 69 52 69 35 0 39 -2 28 -15z m2650 -20 c10 -12 7
-24 -17 -67 -17 -29 -33 -71 -37 -93 -10 -51 -41 -111 -62 -119 -9 -4 -19 -5
-21 -3 -2 2 19 52 47 110 27 59 50 114 50 124 0 9 -10 27 -22 40 l-21 23 35 0
c20 0 41 -7 48 -15z m-193 -90 c-24 -44 -80 -144 -125 -222 -45 -77 -82 -148
-82 -155 0 -8 -16 -35 -36 -60 -19 -26 -50 -77 -68 -115 -18 -37 -58 -99 -89
-138 -31 -38 -59 -81 -62 -94 -4 -14 -18 -39 -33 -56 -15 -18 -35 -45 -44 -61
-10 -16 -22 -36 -27 -44 -5 -8 -15 -42 -21 -74 -10 -49 -21 -68 -60 -110 -27
-29 -58 -75 -69 -104 -32 -80 -104 -201 -124 -208 -17 -5 -17 -7 -3 -23 9 -10
16 -22 16 -28 0 -15 -113 3 -158 26 -21 10 -69 21 -112 24 -41 3 -102 15 -135
27 -99 35 -225 68 -310 81 -44 7 -105 24 -135 39 -30 15 -92 40 -137 54 -77
26 -83 26 -118 12 -20 -9 -46 -27 -57 -41 -27 -35 -33 -26 -12 18 11 23 28 40
47 47 42 14 124 12 155 -4 15 -8 63 -26 107 -41 212 -70 306 -97 376 -105 42
-5 91 -15 110 -23 19 -8 61 -23 94 -32 33 -9 83 -24 110 -32 85 -27 116 -32
112 -20 -2 7 -21 15 -43 18 -53 7 -184 51 -184 61 0 12 13 10 65 -8 36 -12 50
-13 61 -3 8 6 35 16 61 20 26 5 52 17 58 25 5 9 24 40 40 69 17 29 57 94 90
145 52 80 144 221 308 475 25 39 73 120 107 180 34 61 81 135 104 165 22 30
49 71 60 90 10 19 24 42 31 50 7 8 33 54 58 102 45 89 109 178 114 162 2 -6
-16 -46 -40 -89z m-3267 66 c0 -5 -6 -11 -12 -14 -10 -4 -10 -7 0 -18 17 -18
15 -39 -3 -39 -11 0 -15 11 -15 40 0 29 4 40 15 40 8 0 15 -4 15 -9z m3314
-118 c-44 -115 -73 -177 -81 -170 -5 5 38 120 58 156 4 9 18 40 30 69 38 92
33 47 -7 -55z m-2824 73 c0 -26 -6 -28 -133 -39 -68 -6 -56 16 14 24 l54 6
-66 1 c-66 2 -66 2 -61 -23 3 -17 0 -25 -9 -25 -11 0 -11 -2 0 -9 9 -6 22 -6
32 0 10 5 52 9 93 9 69 0 76 -2 76 -20 0 -18 -7 -20 -62 -21 -98 0 -142 -11
-146 -34 -3 -16 -1 -17 7 -5 8 11 34 16 101 18 89 4 90 4 90 -20 0 -21 -4 -23
-52 -23 -29 0 -79 -3 -110 -7 l-58 -7 -2 32 c0 18 0 39 1 47 1 8 3 31 5 51 5
61 18 68 129 69 96 0 97 0 97 -24z m-303 -37 c-5 -19 -4 -20 12 -5 20 18 41
21 41 5 0 -6 -9 -13 -21 -16 -16 -4 -18 -8 -7 -14 20 -14 -11 -31 -42 -23 -14
3 -56 10 -93 14 -67 8 -98 22 -83 37 4 5 49 11 99 14 51 3 94 6 96 7 2 1 1 -7
-2 -19z m4092 2 c12 -8 12 -12 3 -24 -7 -8 -13 -40 -14 -71 -1 -32 -7 -61 -14
-67 -7 -6 -41 -12 -74 -14 -34 -3 -104 -16 -155 -30 -52 -14 -143 -32 -202
-40 -119 -17 -306 -59 -331 -75 -20 -13 -2 -10 173 25 180 37 474 92 522 99
49 7 70 1 84 -26 14 -26 -9 -52 -68 -78 -57 -25 -55 -33 5 -15 60 19 103 19
128 1 18 -14 18 -15 -9 -25 -16 -6 -37 -11 -48 -11 -11 0 -100 -16 -197 -35
-256 -50 -496 -95 -498 -92 -1 1 -5 14 -9 29 -6 25 -4 28 32 37 82 21 294 63
408 81 79 12 105 19 75 19 -51 1 -349 -51 -424 -74 -27 -8 -65 -15 -85 -15
-20 0 -46 -7 -57 -15 -19 -13 -23 -11 -50 18 -17 18 -47 58 -69 90 -31 48 -36
60 -24 68 10 6 11 9 1 9 -9 0 -10 5 -3 19 7 12 26 20 53 24 58 8 60 1 7 -23
-63 -28 -26 -24 46 5 33 14 67 25 75 25 9 0 60 11 114 26 153 39 147 23 -6
-21 -76 -21 -136 -40 -134 -42 3 -4 82 15 301 72 122 31 249 54 322 56 14 1
20 6 16 15 -7 18 -9 18 -138 -6 -60 -11 -110 -18 -113 -16 -9 10 137 47 225
58 67 9 90 15 83 23 -19 23 20 34 49 16z m-4281 -39 c2 -7 -3 -12 -12 -12 -9
0 -16 7 -16 16 0 17 22 14 28 -4z m-5 -29 c4 -3 3 -11 -3 -18 -6 -7 -3 -17 10
-28 11 -9 20 -13 20 -7 0 5 -5 12 -10 15 -7 4 -7 13 0 26 9 15 22 19 68 19 31
0 71 -4 89 -9 22 -6 33 -6 36 2 2 6 6 3 10 -6 5 -13 -1 -20 -21 -28 l-27 -11
23 -11 c26 -12 28 -22 7 -31 -8 -3 -15 -12 -15 -21 0 -8 -7 -15 -15 -15 -8 0
-15 -4 -15 -10 0 -5 6 -10 14 -10 8 0 18 5 21 10 11 17 35 11 35 -9 0 -11 5
-23 10 -26 16 -10 12 -52 -6 -59 -10 -4 -13 -13 -9 -26 5 -14 2 -20 -9 -20 -9
0 -16 5 -16 10 0 6 -7 10 -15 10 -8 0 -15 -4 -15 -10 0 -5 7 -10 15 -10 18 0
19 -12 3 -28 -9 -9 -6 -13 12 -20 l24 -9 -24 -13 c-23 -13 -146 -9 -184 6 -20
8 -21 42 0 65 12 14 13 22 4 39 -9 16 -9 25 0 35 9 11 8 18 -4 31 -18 18 -33
13 -21 -7 20 -31 6 -137 -16 -123 -9 5 -11 258 -3 287 6 18 16 22 27 10z m485
-95 c-3 -20 -11 -24 -70 -30 -37 -3 -76 -9 -87 -13 -14 -4 -21 -2 -21 7 0 8
-4 6 -11 -4 -16 -28 -29 -21 -29 13 0 24 4 30 15 25 8 -3 15 -1 15 4 0 11 36
17 123 19 66 1 68 0 65 -21z m2872 -45 c0 -10 -4 -24 -9 -32 -9 -14 15 -48
120 -173 39 -47 51 -88 25 -88 -8 0 -18 5 -21 11 -4 5 -30 21 -58 33 -66 30
-115 67 -110 84 8 22 -22 13 -32 -10 -12 -28 -30 -25 -30 5 -1 42 82 187 106
187 5 0 9 -8 9 -17z m-2882 -26 l3 -27 -83 5 c-55 4 -78 2 -68 -4 13 -9 13
-11 0 -15 -23 -7 -63 -2 -67 9 -1 6 1 15 5 21 9 15 128 43 172 41 30 -2 35 -6
38 -30z m-3 -132 c0 -15 -8 -21 -30 -23 -16 -2 -52 -10 -79 -18 -57 -16 -66
-17 -66 -6 0 5 12 13 28 19 27 11 27 11 -6 6 -26 -4 -31 -3 -27 9 7 18 83 36
140 34 33 -1 40 -5 40 -21z m-245 -5 c0 -5 -7 -10 -16 -10 -8 0 -12 5 -9 10 3
6 10 10 16 10 5 0 9 -4 9 -10z m-240 -57 c0 -5 46 -8 102 -8 72 0 103 -4 106
-13 2 -6 10 -12 18 -12 8 0 14 -4 14 -10 0 -5 -9 -10 -20 -10 -11 0 -20 5 -20
12 0 9 -3 9 -12 0 -7 -7 -36 -9 -89 -5 -52 4 -83 2 -92 -5 -8 -7 -17 -9 -20
-5 -11 10 -8 63 3 63 6 0 10 -3 10 -7z m3575 -38 c0 -11 -8 -21 -17 -23 -14
-3 -18 3 -18 23 0 20 4 26 18 23 9 -2 17 -12 17 -23z m-3165 -5 c0 -14 -55
-40 -85 -40 -31 0 -32 13 -2 28 47 23 87 29 87 12z m2975 -20 c-3 -5 -22 -10
-41 -10 -21 0 -33 4 -29 10 3 6 22 10 41 10 21 0 33 -4 29 -10z m-3149 -15 c9
-8 12 -19 9 -25 -9 -14 -35 -12 -35 3 -1 7 -6 5 -14 -6 -8 -10 -20 -15 -29
-11 -8 3 -18 1 -22 -5 -3 -7 2 -11 14 -11 25 0 28 -30 4 -31 -14 0 -13 -2 5
-9 12 -6 22 -18 22 -30 0 -14 -7 -20 -22 -21 l-23 0 22 -9 c49 -20 -6 -70 -76
-70 -48 0 -69 24 -69 77 0 27 5 58 11 71 7 15 7 26 0 33 -6 6 -9 2 -9 -13 2
-38 -29 -28 -32 11 -2 19 1 31 6 27 5 -3 12 3 15 14 5 18 14 20 107 20 77 0
105 -4 116 -15z m-259 -27 c-3 -7 -5 -2 -5 12 0 14 2 19 5 13 2 -7 2 -19 0
-25z m4093 0 c0 -34 -13 -29 -25 10 -5 16 -2 22 9 22 11 0 16 -10 16 -32z
m-3700 3 c0 -12 -20 -25 -27 -18 -7 7 6 27 18 27 5 0 9 -4 9 -9z m3730 -16 c0
-8 -4 -17 -10 -20 -6 -4 -10 5 -10 20 0 15 4 24 10 20 6 -3 10 -12 10 -20z
m-3780 5 c0 -5 -7 -10 -15 -10 -8 0 -15 5 -15 10 0 6 7 10 15 10 8 0 15 -4 15
-10z m3607 -20 c7 -39 23 -49 23 -16 0 31 16 34 25 5 7 -22 20 -18 20 7 0 7 5
13 10 11 6 -1 9 -14 9 -29 -1 -17 2 -25 8 -22 6 4 28 8 49 9 34 3 39 1 39 -19
0 -12 -15 -53 -34 -92 l-34 -71 -51 -2 c-29 -1 -71 -8 -94 -16 -23 -8 -63 -15
-88 -15 -26 0 -64 -7 -85 -16 -22 -9 -50 -13 -67 -10 -17 3 -41 -1 -59 -10
-18 -9 -45 -14 -67 -12 -20 3 -49 1 -66 -4 -16 -5 -57 -14 -90 -18 -117 -17
-230 -40 -274 -55 -24 -8 -46 -13 -48 -11 -2 1 27 67 63 145 60 126 70 141 88
135 12 -4 28 -13 37 -20 15 -14 29 -10 29 8 0 5 -4 6 -10 3 -5 -3 -10 3 -10
13 0 19 18 32 42 32 7 0 7 -5 -1 -14 -8 -10 -8 -22 0 -46 7 -20 9 -61 6 -109
-5 -61 -4 -72 5 -56 7 11 12 50 13 87 0 76 12 78 18 3 3 -45 4 -44 5 16 1 48
-2 70 -12 79 -8 6 -12 18 -9 26 8 21 38 17 57 -8 l17 -23 -6 28 c-6 28 0 33
25 17 9 -6 17 -5 22 3 5 9 11 8 20 -4 7 -9 23 -19 36 -22 21 -5 22 -3 16 31
-4 25 -3 34 4 27 5 -5 12 -19 14 -29 1 -11 9 -21 15 -23 9 -3 11 4 6 28 -4 23
-3 30 5 25 7 -4 12 -15 12 -24 0 -9 5 -24 11 -32 8 -11 9 -4 5 28 -7 51 10 57
20 7 8 -43 25 -57 22 -18 -2 30 7 53 21 53 5 0 12 -20 15 -45 4 -25 14 -51 22
-59 17 -17 18 -44 4 -82 -9 -24 -9 -25 5 -14 11 9 15 32 15 82 0 41 4 67 9 63
6 -3 11 14 13 37 l4 43 17 -37 c20 -43 42 -53 27 -12 -22 57 -4 75 23 22 l16
-33 0 38 c1 43 18 49 27 10 11 -46 19 -50 25 -13 l6 35 11 -27 c16 -39 26 -35
18 7 -6 28 -4 35 9 35 9 0 18 -12 22 -30z m-3687 -3 c0 -19 -10 -27 -26 -20
-21 8 -17 33 6 33 11 0 20 -6 20 -13z m88 -9 c-6 -18 -28 -21 -28 -4 0 9 7 16
16 16 9 0 14 -5 12 -12z m3370 -26 c4 -25 -13 -30 -22 -6 -9 25 -7 36 7 32 6
-3 13 -14 15 -26z m-3468 -17 c0 -8 -4 -15 -9 -15 -5 0 -11 7 -15 15 -3 9 0
15 9 15 8 0 15 -7 15 -15z m58 -3 c2 -7 -3 -12 -12 -12 -9 0 -16 7 -16 16 0
17 22 14 28 -4z m3192 2 c0 -8 -4 -12 -10 -9 -5 3 -10 10 -10 16 0 5 5 9 10 9
6 0 10 -7 10 -16z m-3470 -9 c0 -8 -4 -15 -10 -15 -5 0 -10 7 -10 15 0 8 5 15
10 15 6 0 10 -7 10 -15z m-85 -45 c-4 -6 -59 -10 -131 -10 -81 0 -123 4 -119
10 4 6 59 10 131 10 81 0 123 -4 119 -10z m105 -61 c0 -20 -38 -8 -44 14 -12
45 -6 53 19 24 14 -15 25 -32 25 -38z m210 42 c0 -6 -4 -13 -10 -16 -5 -3 -10
1 -10 9 0 9 5 16 10 16 6 0 10 -4 10 -9z m-364 -13 c3 -4 -19 -9 -50 -13 -56
-7 -126 0 -126 13 0 8 167 8 176 0z m54 2 c0 -5 -9 -10 -21 -10 -11 0 -17 5
-14 10 3 6 13 10 21 10 8 0 14 -4 14 -10z m280 -19 c0 -11 -29 -35 -35 -29
-10 9 7 38 21 38 8 0 14 -4 14 -9z m-70 -41 c0 -5 -14 -10 -31 -10 -17 0 -28
4 -24 10 3 6 17 10 31 10 13 0 24 -4 24 -10z m-170 -10 c11 -7 2 -10 -32 -10
-27 0 -48 5 -48 10 0 13 60 13 80 0z m4135 -40 c-29 -12 -114 -12 -95 0 8 5
38 9 65 9 37 0 45 -3 30 -9z m-4235 -20 c11 -7 0 -10 -37 -10 -29 0 -53 5 -53
10 0 13 70 13 90 0z m4060 0 c0 -5 -8 -10 -17 -10 -10 0 -29 -3 -43 -6 l-25
-5 25 15 c29 18 60 21 60 6z m-136 -19 c3 -5 -7 -11 -22 -14 -32 -6 -42 0 -22
13 19 12 37 13 44 1z m-144 -27 c0 -2 -9 -4 -21 -4 -11 0 -18 4 -14 10 5 8 35
3 35 -6z m660 -36 c0 -13 -4 -29 -9 -37 -9 -14 13 -96 30 -115 18 -20 8 -26
-28 -20 -28 4 -67 -4 -152 -31 -62 -20 -172 -47 -242 -60 -176 -32 -561 -127
-551 -137 4 -4 25 -1 47 7 22 8 51 14 64 15 13 0 64 11 115 25 50 14 118 29
151 34 33 5 121 22 197 38 75 15 134 25 132 21 -2 -3 -75 -23 -162 -43 -86
-21 -236 -57 -332 -81 -106 -27 -184 -41 -199 -37 -13 3 -42 24 -63 45 -32 32
-37 42 -28 58 5 10 10 28 10 39 0 14 9 23 28 27 15 3 80 22 145 40 66 19 133
34 151 34 35 0 149 21 143 26 -9 10 -245 -30 -327 -55 -126 -38 -150 -43 -150
-32 0 15 30 41 53 45 247 51 705 129 720 123 7 -2 -6 -8 -28 -11 -22 -4 -56
-11 -75 -16 -66 -18 55 -2 195 25 118 23 117 26 -5 10 l-45 -5 55 20 c30 11
66 18 80 15 14 -3 32 -1 40 4 40 26 -38 20 -228 -17 -329 -66 -678 -132 -693
-132 -22 0 6 22 48 37 43 17 153 38 263 53 41 5 106 19 145 30 38 11 99 20
135 20 36 0 110 11 165 24 141 34 137 34 173 35 27 1 32 -3 32 -21z m-1545
-25 c-19 -44 -35 -64 -35 -42 0 15 36 79 45 79 3 0 -2 -17 -10 -37z m1075 2
c0 -6 -97 -32 -147 -39 -24 -4 -43 -2 -43 3 0 14 78 36 138 38 28 1 52 0 52
-2z m-775 -45 c3 -5 -1 -10 -9 -10 -9 0 -16 5 -16 10 0 6 4 10 9 10 6 0 13 -4
16 -10z m440 -27 c-104 -30 -170 -58 -202 -86 -23 -20 -39 -27 -51 -22 -23 10
-244 24 -257 17 -17 -11 37 -20 122 -21 47 -1 85 -6 88 -12 5 -7 -28 -9 -111
-4 -79 4 -114 3 -104 -4 9 -5 58 -12 110 -16 85 -5 123 -16 109 -29 -3 -3 -34
-1 -69 4 -36 5 -91 10 -122 10 -31 0 -59 4 -62 9 -3 4 5 28 17 52 l22 44 60
-2 c33 -2 95 -8 138 -14 75 -11 106 -7 78 10 -7 4 -61 11 -119 14 -106 6 -165
18 -145 30 6 4 50 2 99 -4 180 -20 198 -20 287 12 45 16 100 28 122 28 l40 -1
-50 -15z m-3620 -43 c21 -5 4 -8 -55 -8 -56 0 -78 2 -65 8 24 10 79 10 120 0z
m236 -4 c37 -11 131 -14 467 -12 l421 2 55 -47 c30 -25 65 -49 79 -53 24 -6
67 -70 54 -82 -3 -4 -22 5 -42 20 -19 15 -50 34 -68 42 -17 8 -47 26 -66 39
-51 37 -104 48 -206 41 -49 -3 -175 -10 -278 -15 -103 -6 -191 -13 -196 -15
-5 -3 -85 -7 -180 -9 -183 -5 -184 -4 -158 45 31 60 46 66 118 44z m-156 -56
c-3 -5 -22 -10 -41 -10 -21 0 -33 4 -29 10 3 6 22 10 41 10 21 0 33 -4 29 -10z
m-102 -7 c-7 -2 -21 -2 -30 0 -10 3 -4 5 12 5 17 0 24 -2 18 -5z m1086 -12
c33 -6 64 -20 80 -35 14 -13 46 -34 70 -46 24 -12 55 -33 69 -47 l25 -25 18
23 c16 21 18 22 24 6 4 -9 5 -23 2 -31 -3 -8 1 -17 10 -21 32 -12 -3 -27 -47
-20 -34 6 -44 12 -52 36 -5 16 -15 30 -21 31 -7 0 -16 2 -22 2 -5 1 -27 19
-48 40 -23 24 -43 36 -53 32 -8 -3 -34 4 -57 16 -47 24 -83 25 -222 9 -49 -6
-187 -15 -305 -21 -311 -15 -327 -18 -60 -13 129 3 251 9 270 13 19 5 85 11
146 15 l111 7 86 -38 c48 -20 87 -42 87 -47 0 -11 -15 -7 -100 29 -71 29 -65
29 -370 3 -177 -15 -343 -19 -513 -12 l-138 6 3 26 3 26 205 6 c113 3 212 8
220 12 8 3 92 9 185 12 94 3 190 9 215 13 55 9 108 6 179 -7z m523 0 c24 -10
60 -30 80 -44 23 -15 65 -30 105 -36 38 -7 85 -21 106 -32 21 -10 47 -19 58
-19 11 0 37 -9 59 -20 22 -11 48 -20 59 -20 11 0 23 -5 27 -11 16 -27 -232 34
-318 77 -26 13 -58 24 -72 24 -13 0 -50 14 -82 31 -55 29 -61 29 -108 18 -65
-14 -91 -31 -113 -72 -16 -29 -18 -30 -21 -10 -4 27 40 89 83 115 38 23 82 23
137 -1z m2773 9 c-3 -5 -10 -10 -16 -10 -5 0 -9 5 -9 10 0 6 7 10 16 10 8 0
12 -4 9 -10z m-965 -74 c0 -6 -4 -17 -9 -25 -8 -12 -12 -12 -25 -2 -19 16 -21
42 -4 59 10 10 15 9 25 -5 7 -9 13 -22 13 -27z m-650 16 c0 -5 -7 -17 -15 -28
-15 -19 -20 -8 -9 20 6 17 24 22 24 8z m316 -39 c-10 -10 -19 5 -10 18 6 11 8
11 12 0 2 -7 1 -15 -2 -18z m-1977 -10 c20 -9 48 -24 63 -34 29 -21 78 -26 78
-8 0 8 5 8 15 -1 18 -15 20 -40 3 -40 -6 0 -4 -7 5 -18 21 -23 21 -32 1 -32
-9 0 -18 8 -21 19 -2 10 -16 24 -30 30 -23 10 -25 10 -18 -6 4 -10 8 -23 8
-29 0 -6 9 -9 19 -6 10 2 18 -1 18 -7 0 -6 13 -11 29 -11 17 0 33 -5 37 -11 4
-7 29 -10 66 -7 44 3 64 10 81 27 l22 23 -32 -7 c-38 -8 -54 0 -46 20 7 19
108 13 172 -10 24 -8 54 -15 68 -15 13 0 33 -5 43 -10 11 -6 32 -12 47 -14 15
-2 62 -16 103 -30 41 -14 85 -26 96 -26 12 0 41 -9 65 -20 24 -11 53 -20 64
-20 11 0 42 -9 70 -19 27 -11 77 -27 110 -36 33 -10 76 -24 96 -32 20 -8 61
-16 90 -18 30 -1 74 -12 99 -23 66 -31 174 -62 214 -62 26 0 38 6 47 22 6 13
20 32 30 43 10 11 31 48 48 82 32 65 46 80 56 64 3 -6 -5 -27 -17 -48 -13 -21
-34 -59 -46 -84 -12 -26 -29 -52 -37 -59 -20 -17 -20 -51 0 -44 10 4 15 0 15
-14 0 -11 -7 -23 -16 -26 -29 -11 -72 -6 -78 9 -3 8 -16 15 -30 15 -14 0 -61
14 -106 30 -45 17 -114 35 -153 41 -40 6 -93 22 -119 35 -26 13 -61 24 -77 24
-17 0 -54 9 -83 21 -29 11 -91 27 -138 36 -47 8 -95 21 -107 28 -12 8 -54 22
-95 31 -40 9 -87 24 -105 34 -17 10 -56 23 -87 30 -31 6 -58 16 -61 21 -12 19
-65 9 -97 -19 -18 -16 -41 -32 -51 -35 -23 -9 -238 34 -242 47 -2 6 -6 24 -10
40 l-6 29 -142 -8 c-78 -4 -277 -9 -442 -11 -165 -1 -373 -8 -461 -15 -173
-13 -205 -10 -183 17 10 13 26 15 69 11 30 -3 84 -1 120 4 36 5 216 13 400 20
184 6 362 14 395 19 34 4 83 3 113 -2 29 -5 63 -8 75 -6 20 3 18 6 -13 22 -32
18 -44 18 -180 6 -80 -6 -151 -14 -158 -16 -7 -2 -10 1 -7 6 3 6 27 10 53 10
26 0 53 4 61 9 9 6 -9 7 -50 4 -35 -3 -75 -13 -89 -22 -22 -14 -66 -16 -332
-17 -202 0 -312 -4 -320 -12 -17 -13 -68 -4 -68 13 0 8 8 21 17 30 13 14 26
16 62 9 125 -21 538 -10 759 21 107 15 196 11 251 -12z m1927 3 c3 -8 -1 -27
-9 -43 -8 -15 -18 -39 -22 -53 -7 -24 -7 -24 9 -5 13 17 15 17 16 4 0 -9 -7
-22 -15 -29 -8 -7 -15 -9 -15 -4 0 5 -11 -8 -25 -29 -23 -33 -55 -50 -55 -28
0 4 14 41 31 82 17 41 35 84 40 97 10 25 37 30 45 8z m-1417 -22 c47 -14 106
-36 131 -49 54 -26 164 -55 214 -55 20 0 36 -5 36 -11 0 -7 -12 -10 -29 -7
-18 3 -29 0 -28 -6 3 -16 -33 -7 -64 15 -15 11 -44 19 -66 19 -21 0 -58 9 -82
20 -24 11 -51 20 -60 20 -9 0 -22 5 -27 10 -20 20 -122 40 -149 30 -54 -21
-65 2 -12 25 42 19 36 19 136 -11z m1556 16 c3 -5 -3 -10 -14 -10 -11 0 -23 5
-26 10 -3 6 3 10 14 10 11 0 23 -4 26 -10z m193 -6 c2 -1 1 -12 -3 -24 -6 -20
-8 -20 -25 -5 -10 9 -43 19 -74 22 -31 3 -56 10 -56 15 0 8 149 1 158 -8z
m-252 -9 c18 -14 17 -15 -15 -13 -19 2 -36 9 -39 16 -5 17 30 15 54 -3z m284
-15 c0 -5 -2 -10 -4 -10 -3 0 -8 5 -11 10 -3 6 -1 10 4 10 6 0 11 -4 11 -10z
m-1739 -51 c55 -19 99 -37 99 -42 0 -5 -10 -6 -22 -2 -13 4 -49 11 -81 16 -32
5 -71 16 -87 24 -16 8 -48 15 -71 15 -37 0 -40 2 -28 16 18 21 64 15 190 -27z
m1518 -62 c65 -67 72 -77 62 -96 -15 -26 -52 -27 -107 -2 -23 10 -57 22 -75
26 -66 14 -67 29 -13 123 30 51 32 51 133 -51z m-14 83 c-3 -5 -13 -10 -21
-10 -8 0 -14 5 -14 10 0 6 9 10 21 10 11 0 17 -4 14 -10z m85 -35 c23 -8 58
-15 78 -15 30 0 114 -12 190 -26 16 -3 22 -10 20 -22 -4 -21 -28 -20 -153 2
-49 9 -113 16 -142 16 -42 0 -55 4 -67 22 -9 12 -16 26 -16 30 0 13 44 9 90
-7z m-2080 -30 c0 -19 -11 -19 -36 0 -18 14 -18 14 9 15 17 0 27 -5 27 -15z
m-102 -1 c40 -11 23 -24 -33 -24 -57 0 -76 16 -27 23 15 2 29 5 32 5 3 1 15
-1 28 -4z m797 -19 c24 -15 33 -25 23 -25 -25 0 -98 31 -98 41 0 16 34 9 75
-16z m233 -8 c17 -6 32 -14 32 -18 0 -13 -129 -4 -142 10 -11 11 -7 13 19 9
28 -4 31 -2 20 10 -13 16 -4 15 71 -11z m-128 -27 c0 -13 -30 -13 -50 0 -11 7
-7 10 18 10 17 0 32 -4 32 -10z m656 -48 c-20 -20 -22 -1 -3 28 10 18 12 18
15 4 2 -9 -3 -24 -12 -32z m669 39 c10 -18 -17 -23 -33 -7 -15 15 -15 16 5 16
12 0 24 -4 28 -9z m-1152 -15 c54 -25 167 -56 203 -56 18 0 53 -9 76 -19 63
-28 170 -61 195 -61 20 0 88 -48 80 -56 -6 -6 -151 36 -173 51 -11 7 -47 18
-79 24 -33 6 -64 16 -69 21 -6 6 -26 10 -45 10 -40 0 -127 24 -189 51 -23 10
-56 19 -72 19 -38 0 -48 17 -13 23 51 7 55 7 86 -7z m1282 4 c4 -6 -10 -10
-34 -10 -22 0 -43 5 -46 10 -4 6 10 10 34 10 22 0 43 -4 46 -10z m-2125 -20
c0 -5 -9 -10 -19 -10 -11 0 -23 5 -26 10 -4 6 5 10 19 10 14 0 26 -4 26 -10z
m240 1 c0 -12 -28 -22 -34 -12 -3 5 -3 11 1 15 9 9 33 7 33 -3z m1807 -8 c2
-6 -6 -22 -18 -34 -25 -25 -35 -15 -25 27 7 26 35 31 43 7z m-2192 -3 c47 -5
29 -7 -85 -8 -80 0 -163 3 -185 7 -52 11 184 12 270 1z m272 -16 c-3 -3 -12
-4 -19 -1 -8 3 -5 6 6 6 11 1 17 -2 13 -5z m213 -14 c0 -5 -22 -10 -50 -10
-27 0 -50 5 -50 10 0 6 23 10 50 10 28 0 50 -4 50 -10z m1404 -12 c-3 -4 -23
-8 -45 -8 -25 0 -38 4 -34 10 4 6 24 10 45 8 21 -1 37 -5 34 -10z m141 -9 c5
-5 -8 -9 -32 -9 -41 0 -60 10 -46 24 9 8 64 -3 78 -15z m-1372 -19 c7 0 7 -3
2 -8 -6 -5 -59 -6 -120 -2 -72 4 -104 9 -92 14 10 5 45 6 78 3 32 -3 57 -1 54
3 -3 5 9 10 27 12 20 2 34 -2 36 -9 2 -7 9 -13 15 -13z m1122 20 c-3 -5 -10
-10 -16 -10 -5 0 -9 5 -9 10 0 6 7 10 16 10 8 0 12 -4 9 -10z m-1035 -20 c11
-7 3 -10 -28 -10 -26 0 -41 4 -37 10 8 13 45 13 65 0z m-212 -97 c-16 -2 -40
-2 -55 0 -16 2 -3 4 27 4 30 0 43 -2 28 -4z"/>
<path d="M1087 4583 c-3 -5 0 -19 8 -29 15 -20 18 -11 6 20 -4 11 -10 15 -14
9z"/>
<path d="M1028 4573 c7 -3 16 -2 19 1 4 3 -2 6 -13 5 -11 0 -14 -3 -6 -6z"/>
<path d="M947 4453 c4 -56 2 -103 -5 -120 -16 -44 -23 -93 -12 -93 6 0 10 9
10 19 0 11 5 21 11 23 15 5 16 217 1 243 -9 16 -10 0 -5 -72z"/>
<path d="M1168 4533 c7 -3 16 -2 19 1 4 3 -2 6 -13 5 -11 0 -14 -3 -6 -6z"/>
<path d="M1238 4523 c7 -3 16 -2 19 1 4 3 -2 6 -13 5 -11 0 -14 -3 -6 -6z"/>
<path d="M1388 4493 c7 -3 16 -2 19 1 4 3 -2 6 -13 5 -11 0 -14 -3 -6 -6z"/>
<path d="M1465 4480 c3 -5 8 -10 11 -10 2 0 4 5 4 10 0 6 -5 10 -11 10 -5 0
-7 -4 -4 -10z"/>
<path d="M1565 4470 c3 -5 11 -10 16 -10 6 0 7 5 4 10 -3 6 -11 10 -16 10 -6
0 -7 -4 -4 -10z"/>
<path d="M1026 4451 c-4 -7 -5 -15 -2 -18 9 -9 19 4 14 18 -4 11 -6 11 -12 0z"/>
<path d="M806 4376 c7 -19 38 -22 32 -3 -3 6 -12 13 -21 15 -12 2 -15 -1 -11
-12z"/>
<path d="M985 4361 c-6 -11 9 -23 19 -14 9 9 7 23 -3 23 -6 0 -12 -4 -16 -9z"/>
<path d="M974 4269 c-3 -6 -1 -16 5 -22 8 -8 11 -5 11 11 0 24 -5 28 -16 11z"/>
<path d="M917 4166 c-10 -35 2 -161 13 -149 5 4 5 46 1 93 -5 67 -8 79 -14 56z"/>
<path d="M1005 4160 c3 -5 8 -10 11 -10 2 0 4 5 4 10 0 6 -5 10 -11 10 -5 0
-7 -4 -4 -10z"/>
<path d="M995 4061 c-3 -5 -1 -12 4 -15 5 -3 11 1 15 9 6 16 -9 21 -19 6z"/>
<path d="M995 3927 c-4 -10 -5 -21 -1 -24 10 -10 18 4 13 24 -4 17 -4 17 -12
0z"/>
<path d="M987 3823 c-10 -9 -9 -23 2 -23 5 0 11 7 15 15 5 15 -5 20 -17 8z"/>
<path d="M906 3801 c-4 -6 -3 -18 2 -27 8 -15 10 -14 16 2 8 20 -8 42 -18 25z"/>
<path d="M970 3715 c-10 -13 -9 -15 9 -15 12 0 21 6 21 15 0 8 -4 15 -9 15 -5
0 -14 -7 -21 -15z"/>
<path d="M980 3566 c0 -9 7 -16 16 -16 9 0 14 5 12 12 -6 18 -28 21 -28 4z"/>
<path d="M977 3443 c-10 -9 -9 -23 2 -23 5 0 11 7 15 15 5 15 -5 20 -17 8z"/>
<path d="M965 3321 c-6 -11 9 -23 19 -14 9 9 7 23 -3 23 -6 0 -12 -4 -16 -9z"/>
<path d="M1073 3140 c0 -47 2 -66 4 -42 2 23 2 61 0 85 -2 23 -4 4 -4 -43z"/>
<path d="M950 3195 c0 -9 6 -12 15 -9 8 4 15 10 15 15 0 5 -7 9 -15 9 -8 0
-15 -7 -15 -15z"/>
<path d="M965 3070 c-3 -5 1 -10 9 -10 9 0 16 5 16 10 0 6 -4 10 -9 10 -6 0
-13 -4 -16 -10z"/>
<path d="M1073 2995 c0 -33 2 -45 4 -27 2 18 2 45 0 60 -2 15 -4 0 -4 -33z"/>
<path d="M980 2900 c0 -5 7 -10 15 -10 8 0 15 5 15 10 0 6 -7 10 -15 10 -8 0
-15 -4 -15 -10z"/>
<path d="M966 2811 c-4 -7 -5 -15 -2 -18 9 -9 19 4 14 18 -4 11 -6 11 -12 0z"/>
<path d="M977 2676 c-4 -10 -5 -21 -2 -24 9 -9 17 6 13 25 -3 17 -4 17 -11 -1z"/>
<path d="M748 2473 c6 -2 18 -2 25 0 6 3 1 5 -13 5 -14 0 -19 -2 -12 -5z"/>
<path d="M1203 4287 c-17 -7 -35 -16 -40 -21 -5 -5 0 -6 10 -3 34 13 158 29
173 23 9 -3 12 -1 9 4 -8 14 -113 11 -152 -3z"/>
<path d="M1310 4179 c-19 -4 -41 -6 -48 -4 -7 3 -22 -1 -34 -8 -16 -9 -22 -9
-25 1 -7 19 -23 14 -23 -7 0 -23 25 -34 39 -18 6 8 33 12 70 11 53 -1 61 1 61
18 0 10 -1 18 -2 17 -2 -1 -19 -5 -38 -10z"/>
<path d="M1275 4070 c-3 -5 -20 -10 -38 -10 -22 0 -28 -3 -20 -11 15 -15 73
-1 73 17 0 16 -6 18 -15 4z"/>
<path d="M1203 3939 c-18 -5 -33 -12 -33 -14 0 -3 38 -4 84 -3 47 2 82 6 78
10 -13 12 -97 17 -129 7z"/>
<path d="M1216 3889 c-63 -15 -55 -19 34 -15 45 2 87 9 93 15 14 14 -69 14
-127 0z"/>
<path d="M1213 3839 c-18 -5 -35 -15 -39 -21 -5 -8 -1 -9 12 -4 10 4 54 10 97
13 43 3 80 10 83 14 7 12 -112 10 -153 -2z"/>
<path d="M1174 3765 c-18 -14 -16 -15 21 -8 22 5 66 8 97 7 31 0 55 3 52 8
-10 15 -149 9 -170 -7z"/>
<path d="M1190 3724 c-25 -15 -25 -15 10 -7 19 4 54 8 77 8 22 0 45 3 49 8 14
14 -111 6 -136 -9z"/>
<path d="M1203 3570 c-28 -11 -31 -24 -3 -15 10 3 48 10 82 14 l63 8 -60 1
c-33 0 -70 -3 -82 -8z"/>
<path d="M1193 3520 c-34 -14 -28 -23 10 -14 17 4 57 10 87 14 l55 7 -65 1
c-36 0 -75 -3 -87 -8z"/>
<path d="M512 3861 c-9 -5 6 -9 40 -9 37 -1 49 1 38 8 -19 12 -60 13 -78 1z"/>
<path d="M498 3803 c12 -2 32 -2 45 0 12 2 2 4 -23 4 -25 0 -35 -2 -22 -4z"/>
<path d="M478 3614 c-39 -21 -35 -24 12 -8 23 8 53 12 68 9 23 -4 24 -4 7 4
-29 14 -56 12 -87 -5z"/>
<path d="M511 3526 c11 -9 69 -15 64 -6 -3 6 -20 10 -37 10 -17 0 -29 -2 -27
-4z"/>
<path d="M713 3474 c-7 -7 -13 -15 -13 -17 0 -3 188 0 200 3 3 1 -8 6 -25 11
-16 5 -51 6 -77 3 -28 -4 -53 -2 -60 4 -9 7 -17 6 -25 -4z"/>
<path d="M710 3310 c0 -6 28 -10 68 -9 62 1 64 2 27 10 -56 11 -95 11 -95 -1z"/>
<path d="M2630 3013 c-25 -4 -50 -28 -50 -47 0 -6 9 0 19 13 15 20 24 23 55
18 22 -4 36 -2 36 5 0 7 13 8 35 5 19 -3 35 -2 35 4 0 9 -82 10 -130 2z"/>
<path d="M2770 3000 c0 -5 5 -10 10 -10 6 0 10 5 10 10 0 6 -4 10 -10 10 -5 0
-10 -4 -10 -10z"/>
<path d="M2815 3000 c3 -5 8 -10 11 -10 2 0 4 5 4 10 0 6 -5 10 -11 10 -5 0
-7 -4 -4 -10z"/>
<path d="M2886 2992 c-3 -3 6 -11 21 -19 27 -14 40 -12 29 5 -7 12 -43 22 -50
14z"/>
<path d="M2540 2980 c0 -5 4 -10 9 -10 6 0 13 5 16 10 3 6 -1 10 -9 10 -9 0
-16 -4 -16 -10z"/>
<path d="M2600 2951 c0 -15 23 -26 28 -13 2 7 13 10 28 6 15 -4 24 -2 24 5 0
6 -17 11 -40 11 -22 0 -40 -4 -40 -9z"/>
<path d="M2730 2950 c8 -5 26 -9 40 -9 23 0 23 1 5 9 -11 5 -29 9 -40 9 -17 1
-17 -1 -5 -9z"/>
<path d="M2960 2950 c0 -5 5 -10 10 -10 6 0 10 5 10 10 0 6 -4 10 -10 10 -5 0
-10 -4 -10 -10z"/>
<path d="M3000 2942 c0 -5 7 -13 16 -16 10 -4 14 -1 12 6 -5 15 -28 23 -28 10z"/>
<path d="M2825 2930 c3 -5 13 -10 21 -10 8 0 12 5 9 10 -3 6 -13 10 -21 10 -8
0 -12 -4 -9 -10z"/>
<path d="M2880 2922 c0 -11 24 -22 48 -22 21 0 5 15 -25 25 -13 3 -23 2 -23
-3z"/>
<path d="M3048 2923 c7 -3 16 -2 19 1 4 3 -2 6 -13 5 -11 0 -14 -3 -6 -6z"/>
<path d="M3090 2919 c0 -16 87 -51 118 -47 22 2 28 -1 30 -20 2 -13 -6 -38
-17 -57 -12 -21 -15 -32 -7 -29 19 7 36 50 36 89 0 34 -1 35 -41 35 -26 0 -50
7 -66 20 -28 22 -53 26 -53 9z"/>
<path d="M2495 2900 c-10 -11 -13 -20 -8 -20 13 0 38 29 31 35 -3 3 -13 -4
-23 -15z"/>
<path d="M2540 2895 c0 -11 11 -15 43 -15 l42 1 -40 14 c-49 18 -45 18 -45 0z"/>
<path d="M2663 2893 c9 -2 23 -2 30 0 6 3 -1 5 -18 5 -16 0 -22 -2 -12 -5z"/>
<path d="M3000 2891 c0 -11 70 -45 77 -38 9 10 -8 27 -27 27 -10 0 -22 5 -25
10 -8 12 -25 13 -25 1z"/>
<path d="M2759 2874 c24 -7 48 -11 54 -7 15 9 -21 22 -63 21 l-35 0 44 -14z"/>
<path d="M2874 2855 c27 -10 43 -12 50 -5 7 7 5 10 -6 10 -8 0 -31 2 -49 5
-34 5 -34 5 5 -10z"/>
<path d="M2945 2841 c-7 -12 12 -24 25 -16 11 7 4 25 -10 25 -5 0 -11 -4 -15
-9z"/>
<path d="M3104 2839 c-5 -8 2 -10 22 -6 15 3 39 1 52 -4 28 -11 44 -3 22 11
-21 14 -87 12 -96 -1z"/>
<path d="M2534 2829 c-8 -13 25 -24 37 -12 7 7 3 12 -10 16 -12 3 -24 1 -27
-4z"/>
<path d="M2610 2830 c0 -15 21 -23 32 -12 6 6 2 11 -11 15 -12 3 -21 1 -21 -3z"/>
<path d="M2500 2819 c0 -5 5 -7 10 -4 6 3 10 8 10 11 0 2 -4 4 -10 4 -5 0 -10
-5 -10 -11z"/>
<path d="M2670 2815 c0 -8 7 -15 15 -15 9 0 12 6 9 15 -4 8 -10 15 -15 15 -5
0 -9 -7 -9 -15z"/>
<path d="M2740 2820 c0 -5 25 -14 55 -21 30 -7 55 -16 55 -21 0 -4 12 -8 26
-8 23 0 24 2 10 15 -8 8 -26 15 -39 15 -14 0 -27 4 -29 8 -4 12 -78 23 -78 12z"/>
<path d="M3010 2826 c0 -2 7 -6 15 -10 8 -3 15 -1 15 4 0 6 -7 10 -15 10 -8 0
-15 -2 -15 -4z"/>
<path d="M3058 2793 c7 -3 16 -2 19 1 4 3 -2 6 -13 5 -11 0 -14 -3 -6 -6z"/>
<path d="M2431 2776 c0 -10 -14 -35 -31 -56 -16 -21 -30 -44 -30 -52 0 -8 -9
-23 -20 -33 -11 -10 -17 -22 -13 -28 3 -5 -3 -17 -13 -25 -19 -14 -19 -15 0
-8 11 4 23 1 28 -6 5 -8 6 1 3 22 -9 51 18 73 90 73 31 0 61 -5 68 -12 6 -6
22 -11 35 -11 21 0 22 2 8 15 -8 8 -30 15 -48 15 -25 0 -29 3 -18 10 13 8 13
10 -2 10 -9 0 -28 -4 -42 -9 -40 -16 -54 10 -26 49 12 16 19 38 17 48 -4 15
-5 15 -6 -2z"/>
<path d="M2922 2778 c3 -7 40 -21 84 -31 43 -10 87 -22 96 -28 24 -12 28 -11
22 5 -6 15 -55 31 -126 41 -27 4 -48 11 -48 16 0 5 -7 9 -16 9 -9 0 -14 -6
-12 -12z"/>
<path d="M3115 2780 c-4 -6 7 -10 24 -10 17 0 31 5 31 10 0 6 -11 10 -24 10
-14 0 -28 -4 -31 -10z"/>
<path d="M2470 2771 c0 -15 18 -23 25 -11 4 6 24 8 48 4 31 -4 38 -3 27 5 -19
13 -100 14 -100 2z"/>
<path d="M2600 2760 c0 -5 15 -10 33 -10 24 0 28 3 17 10 -20 13 -50 13 -50 0z"/>
<path d="M2695 2750 c3 -5 17 -10 31 -10 13 0 24 5 24 10 0 6 -14 10 -31 10
-17 0 -28 -4 -24 -10z"/>
<path d="M2785 2740 c5 -7 20 -9 41 -5 27 5 34 3 34 -10 0 -11 10 -15 35 -15
22 0 34 -5 33 -12 -2 -7 16 -12 53 -14 30 -1 70 -9 87 -18 35 -18 42 -19 42
-8 0 14 -80 42 -121 42 -24 0 -38 4 -34 10 4 6 -10 10 -34 10 -28 0 -39 4 -36
13 4 8 -11 13 -51 15 -40 2 -54 0 -49 -8z"/>
<path d="M2445 2720 c-4 -6 5 -10 20 -10 15 0 24 4 20 10 -3 6 -12 10 -20 10
-8 0 -17 -4 -20 -10z"/>
<path d="M2563 2703 c9 -2 25 -2 35 0 9 3 1 5 -18 5 -19 0 -27 -2 -17 -5z"/>
<path d="M2653 2703 c-7 -3 -13 -9 -13 -14 0 -12 47 -12 54 0 7 10 -23 20 -41
14z"/>
<path d="M3147 2703 c-4 -3 -7 -11 -7 -17 0 -6 5 -5 12 2 6 6 9 14 7 17 -3 3
-9 2 -12 -2z"/>
<path d="M2736 2692 c-13 -12 -5 -22 19 -22 14 0 25 4 25 9 0 10 -36 21 -44
13z"/>
<path d="M2801 2671 c-8 -5 -9 -11 -3 -15 5 -3 15 1 22 9 14 16 3 20 -19 6z"/>
<path d="M2589 2646 c16 -19 44 -21 39 -3 -3 6 -15 14 -28 15 -21 3 -22 2 -11
-12z"/>
<path d="M2882 2628 c3 -8 27 -14 64 -16 54 -2 57 -1 34 11 -16 9 -33 11 -47
6 -13 -5 -25 -4 -28 1 -9 14 -27 12 -23 -2z"/>
<path d="M2720 2620 c0 -7 25 -13 113 -26 20 -4 37 -10 37 -14 0 -4 33 -15 73
-25 39 -9 79 -20 88 -25 9 -5 20 -6 23 -3 12 12 -30 30 -85 37 -31 4 -65 14
-75 21 -11 8 -35 15 -56 15 -20 0 -38 5 -40 11 -4 13 -78 20 -78 9z"/>
<path d="M3065 2620 c3 -5 8 -10 11 -10 2 0 4 5 4 10 0 6 -5 10 -11 10 -5 0
-7 -4 -4 -10z"/>
<path d="M3100 2620 c0 -5 5 -10 10 -10 6 0 10 5 10 10 0 6 -4 10 -10 10 -5 0
-10 -4 -10 -10z"/>
<path d="M2380 2612 c0 -13 31 -52 41 -52 5 0 3 14 -6 30 -14 28 -35 41 -35
22z"/>
<path d="M2443 2599 c11 -7 23 -7 35 0 14 9 11 10 -18 10 -29 0 -32 -1 -17
-10z"/>
<path d="M2540 2600 c0 -12 8 -12 35 0 18 8 17 9 -7 9 -16 1 -28 -3 -28 -9z"/>
<path d="M2610 2595 c-10 -13 -9 -15 9 -15 12 0 21 6 21 15 0 8 -4 15 -9 15
-5 0 -14 -7 -21 -15z"/>
<path d="M3010 2600 c0 -14 38 -32 45 -21 3 6 -3 15 -14 20 -24 14 -31 14 -31
1z"/>
<path d="M2275 2570 c-3 -5 1 -10 10 -10 9 0 13 5 10 10 -3 6 -8 10 -10 10 -2
0 -7 -4 -10 -10z"/>
<path d="M2700 2570 c0 -5 5 -10 11 -10 5 0 7 5 4 10 -3 6 -8 10 -11 10 -2 0
-4 -4 -4 -10z"/>
<path d="M2485 2560 c3 -5 8 -10 11 -10 2 0 4 5 4 10 0 6 -5 10 -11 10 -5 0
-7 -4 -4 -10z"/>
<path d="M2549 2534 c19 -8 36 -12 39 -9 5 5 -43 25 -61 25 -7 -1 3 -7 22 -16z"/>
<path d="M2286 2525 c-3 -8 -12 -15 -19 -15 -8 0 -20 -14 -27 -30 -7 -17 -28
-56 -47 -87 -35 -59 -35 -62 9 -81 23 -9 26 -9 21 3 -3 9 1 15 11 15 9 0 16 5
16 11 0 6 21 9 53 7 57 -3 69 -19 22 -29 -26 -6 -24 -7 16 -8 44 -1 47 0 82
52 21 30 37 57 37 61 0 5 11 21 25 38 14 16 25 33 25 36 0 4 -30 8 -67 10 -36
1 -73 7 -80 14 -12 10 -17 9 -24 -5 -13 -23 -29 -21 -29 3 0 23 -15 27 -24 5z
m107 -26 c30 -8 38 -15 34 -28 -2 -10 0 -25 4 -34 11 -19 -7 -63 -29 -72 -17
-6 -18 -6 -26 21 -5 16 0 23 19 32 14 6 25 16 25 22 0 19 -39 10 -64 -15 -27
-27 -89 -37 -67 -11 9 11 9 15 0 18 -17 6 -3 38 16 38 8 0 15 -6 15 -14 0 -17
47 -9 54 10 7 17 -16 18 -32 2 -13 -13 -16 -1 -6 26 7 19 8 19 57 5z m97 -18
c0 -6 -4 -13 -10 -16 -5 -3 -10 1 -10 9 0 9 5 16 10 16 6 0 10 -4 10 -9z
m-206 -87 c20 -8 11 -24 -15 -24 -10 0 -19 7 -19 15 0 16 9 19 34 9z m-54 -35
c0 -10 -4 -19 -9 -19 -5 0 -16 -3 -25 -6 -21 -8 -21 14 0 37 19 21 34 16 34
-12z m135 10 c-4 -5 -16 -9 -28 -9 -21 1 -21 1 -3 15 20 15 41 11 31 -6z"/>
<path d="M2645 2531 c-21 -4 -26 -9 -17 -15 16 -10 62 1 62 14 0 11 0 11 -45
1z"/>
<path d="M2715 2510 c3 -5 11 -10 16 -10 6 0 7 5 4 10 -3 6 -11 10 -16 10 -6
0 -7 -4 -4 -10z"/>
<path d="M2200 2480 c-6 -11 -8 -20 -6 -20 3 0 10 9 16 20 6 11 8 20 6 20 -3
0 -10 -9 -16 -20z"/>
<path d="M2520 2445 c0 -30 22 -47 73 -55 23 -4 51 -11 62 -16 17 -7 18 -6 7
8 -7 8 -31 18 -54 21 -22 3 -48 13 -57 22 -15 16 -12 17 49 10 81 -8 72 4 -15
20 -64 12 -65 12 -65 -10z"/>
<path d="M2720 2410 c0 -5 7 -10 16 -10 8 0 12 5 9 10 -3 6 -10 10 -16 10 -5
0 -9 -4 -9 -10z"/>
<path d="M2780 2393 c69 -23 73 -23 60 -8 -7 8 -27 15 -44 14 -17 0 -24 -3
-16 -6z"/>
<path d="M2128 2373 c-29 -34 -30 -48 -2 -21 15 15 26 30 23 33 -3 3 -13 -3
-21 -12z"/>
<path d="M2490 2375 c7 -8 22 -15 34 -15 20 1 20 2 -4 15 -33 19 -46 19 -30 0z"/>
<path d="M2920 2371 c0 -12 29 -35 36 -28 11 10 -5 37 -21 37 -8 0 -15 -4 -15
-9z"/>
<path d="M2750 2360 c0 -5 8 -10 18 -10 10 0 23 -5 30 -12 7 -7 12 -8 12 -2 0
16 -22 34 -42 34 -10 0 -18 -4 -18 -10z"/>
<path d="M2880 2361 c0 -6 5 -13 10 -16 6 -3 10 1 10 9 0 9 -4 16 -10 16 -5 0
-10 -4 -10 -9z"/>
<path d="M2622 2349 c17 -11 85 -11 92 0 3 4 -20 8 -50 8 -34 0 -50 -3 -42 -8z"/>
<path d="M2440 2330 c0 -5 6 -10 14 -10 8 0 23 -3 33 -6 16 -5 16 -4 -1 10
-22 18 -46 21 -46 6z"/>
<path d="M2740 2311 c13 -10 119 -16 109 -7 -2 2 -31 7 -64 10 -42 5 -56 4
-45 -3z"/>
<path d="M2258 2303 c6 -2 18 -2 25 0 6 3 1 5 -13 5 -14 0 -19 -2 -12 -5z"/>
<path d="M2510 2298 c0 -5 25 -8 55 -8 44 0 53 -3 49 -15 -5 -12 4 -15 45 -15
28 0 51 -4 51 -10 0 -5 14 -10 30 -10 17 0 30 4 30 9 0 12 -36 21 -86 21 -23
0 -47 6 -53 14 -12 15 -121 27 -121 14z"/>
<path d="M2888 2296 c-18 -13 -25 -56 -10 -56 8 0 42 52 42 64 0 10 -14 6 -32
-8z"/>
<path d="M2390 2270 c8 -5 28 -10 44 -10 39 0 30 6 -19 13 -27 4 -35 3 -25 -3z"/>
<path d="M2116 2261 c-10 -16 19 -19 45 -5 l24 13 -32 1 c-17 0 -34 -4 -37 -9z"/>
<path d="M2215 2255 c17 -8 48 -14 70 -14 38 1 36 2 -20 15 -75 16 -88 16 -50
-1z"/>
<path d="M2478 2253 c7 -3 16 -2 19 1 4 3 -2 6 -13 5 -11 0 -14 -3 -6 -6z"/>
<path d="M2810 2250 c0 -5 5 -10 11 -10 5 0 7 5 4 10 -3 6 -8 10 -11 10 -2 0
-4 -4 -4 -10z"/>
<path d="M2510 2246 c0 -2 7 -7 16 -10 8 -3 12 -2 9 4 -6 10 -25 14 -25 6z"/>
<path d="M2578 2243 c7 -3 16 -2 19 1 4 3 -2 6 -13 5 -11 0 -14 -3 -6 -6z"/>
<path d="M2628 2233 c6 -2 18 -2 25 0 6 3 1 5 -13 5 -14 0 -19 -2 -12 -5z"/>
<path d="M2066 2209 c-34 -26 -33 -39 2 -38 25 2 25 2 3 6 l-24 5 29 24 c36
29 27 32 -10 3z"/>
<path d="M2375 2221 c6 -5 39 -12 75 -15 50 -5 59 -4 41 4 -33 14 -129 24
-116 11z"/>
<path d="M2695 2217 c23 -19 45 -22 45 -7 0 6 -6 10 -14 10 -8 0 -23 3 -33 6
-16 6 -16 5 2 -9z"/>
<path d="M2264 2203 c2 -14 14 -19 54 -21 29 -2 52 -7 52 -13 0 -5 17 -9 38
-9 l37 0 -43 20 c-23 10 -49 17 -57 14 -8 -3 -29 1 -46 10 -39 20 -38 20 -35
-1z"/>
<path d="M2533 2214 c9 -3 17 -10 17 -15 0 -5 21 -8 48 -8 47 1 47 1 12 10
-46 11 -100 20 -77 13z"/>
<path d="M2832 2211 c2 -7 7 -12 11 -12 12 1 9 15 -3 20 -7 2 -11 -2 -8 -8z"/>
<path d="M2130 2199 c-10 -6 0 -9 34 -9 54 0 57 4 11 13 -17 3 -37 2 -45 -4z"/>
<path d="M2650 2180 c0 -4 20 -10 45 -12 24 -1 41 0 37 3 -12 10 -82 18 -82 9z"/>
<path d="M2192 2163 c10 -2 15 -10 11 -19 -5 -13 5 -14 63 -8 88 9 94 14 16
14 -35 0 -62 4 -62 10 0 6 -10 9 -22 9 -17 -1 -18 -3 -6 -6z"/>
<path d="M2488 2160 c31 -13 28 -23 -5 -16 -21 5 -24 4 -13 -4 19 -12 77 -13
84 -1 3 5 -8 14 -26 20 -38 13 -74 14 -40 1z"/>
<path d="M2090 2156 c0 -2 7 -7 16 -10 8 -3 12 -2 9 4 -6 10 -25 14 -25 6z"/>
<path d="M2148 2153 c7 -3 16 -2 19 1 4 3 -2 6 -13 5 -11 0 -14 -3 -6 -6z"/>
<path d="M2010 2127 c0 -18 5 -26 18 -26 9 1 28 -3 41 -7 17 -5 22 -4 17 4 -4
7 -2 12 5 12 7 0 4 6 -6 14 -11 8 -25 12 -32 9 -7 -3 -20 0 -28 7 -13 10 -15
8 -15 -13z"/>
<path d="M2778 2138 c-28 -10 -34 -19 -21 -31 3 -4 12 1 19 11 28 38 20 3 -15
-70 -20 -43 -34 -78 -30 -78 12 0 25 24 49 88 13 35 29 70 37 78 17 17 3 18
-39 2z"/>
<path d="M2346 2132 c-11 -10 -6 -22 10 -22 8 0 12 -4 9 -10 -8 -12 15 -13 34
-1 10 6 6 12 -17 24 -17 8 -33 12 -36 9z"/>
<path d="M2620 2134 c0 -8 26 -19 79 -35 7 -2 15 1 18 7 2 6 -9 14 -24 17 -15
4 -38 9 -50 13 -13 3 -23 2 -23 -2z"/>
<path d="M2169 2109 c18 -6 31 -13 27 -16 -8 -8 54 -53 73 -53 10 1 5 7 -11
16 -16 8 -28 21 -28 29 0 19 -32 35 -67 34 -27 -1 -27 -1 6 -10z"/>
<path d="M2510 2098 c0 -8 14 -13 36 -14 34 -1 35 0 12 12 -30 17 -48 17 -48
2z"/>
<path d="M2425 2090 c-3 -5 1 -10 10 -10 9 0 13 5 10 10 -3 6 -8 10 -10 10 -2
0 -7 -4 -10 -10z"/>
<path d="M2113 2083 c9 -2 25 -2 35 0 9 3 1 5 -18 5 -19 0 -27 -2 -17 -5z"/>
<path d="M2263 2078 c21 -7 32 -7 40 1 8 8 0 11 -28 10 -40 -1 -40 -1 -12 -11z"/>
<path d="M2598 2073 c6 -2 18 -2 25 0 6 3 1 5 -13 5 -14 0 -19 -2 -12 -5z"/>
<path d="M2715 2070 c-3 -5 1 -10 9 -10 9 0 16 5 16 10 0 6 -4 10 -9 10 -6 0
-13 -4 -16 -10z"/>
<path d="M2408 2058 c17 -8 26 -8 34 0 9 9 4 12 -22 11 -33 0 -34 -1 -12 -11z"/>
<path d="M2503 2047 c2 -7 19 -13 38 -15 40 -4 35 5 -10 18 -24 7 -31 6 -28
-3z"/>
<path d="M2660 2046 c0 -9 30 -14 35 -6 4 6 -3 10 -14 10 -12 0 -21 -2 -21 -4z"/>
<path d="M2406 2009 c3 -5 29 -9 57 -8 59 1 54 5 -15 12 -26 2 -45 1 -42 -4z"/>
<path d="M2550 2000 c20 -13 33 -13 25 0 -3 6 -14 10 -23 10 -15 0 -15 -2 -2
-10z"/>
<path d="M2620 1989 c0 -12 38 -21 61 -14 11 4 18 10 14 13 -9 9 -75 10 -75 1z"/>
<path d="M2535 1953 c22 -15 32 -16 39 -4 3 5 -8 11 -26 13 -28 5 -29 4 -13
-9z"/>
<path d="M2627 1929 c7 -7 15 -10 18 -7 3 3 -2 9 -12 12 -14 6 -15 5 -6 -5z"/>
<path d="M591 3081 c-17 -11 -6 -31 17 -31 15 0 15 2 2 10 -13 9 -13 11 0 20
8 5 11 10 5 10 -5 0 -16 -4 -24 -9z"/>
<path d="M3300 1953 c-17 -26 -30 -51 -30 -57 0 -5 -11 -23 -24 -40 -30 -39
-131 -240 -116 -231 6 3 24 34 41 68 17 34 48 91 69 127 82 144 101 180 96
180 -4 0 -20 -21 -36 -47z"/>
<path d="M3237 1698 c-21 -44 -36 -82 -34 -84 1 -2 22 35 45 81 23 47 39 85
34 85 -4 -1 -24 -37 -45 -82z"/>
<path d="M3089 1567 c-15 -23 -32 -60 -39 -82 -7 -22 -21 -57 -32 -77 -10 -21
-15 -38 -10 -38 14 0 54 48 43 51 -13 5 20 99 49 139 12 17 20 35 18 40 -2 5
-15 -9 -29 -33z"/>
<path d="M3176 1565 c-9 -26 -7 -32 5 -12 6 10 9 21 6 23 -2 3 -7 -2 -11 -11z"/>
<path d="M3160 1528 c0 -4 -16 -43 -35 -87 -19 -45 -31 -81 -27 -81 10 0 74
161 68 168 -4 3 -6 3 -6 0z"/>
<path d="M4471 2669 c-12 -5 -100 -25 -194 -44 -205 -42 -310 -69 -383 -96
-81 -31 -60 -33 27 -4 116 40 173 53 371 84 102 16 194 34 206 40 11 6 30 11
41 11 11 0 23 5 26 10 8 13 -61 12 -94 -1z"/>
<path d="M3870 2555 c-19 -7 -28 -14 -19 -14 9 -1 32 6 50 14 43 18 16 18 -31
0z"/>
<path d="M396 2651 c-4 -6 -1 -21 6 -33 7 -13 11 -26 10 -30 -1 -5 3 -8 8 -8
6 0 8 11 4 28 -10 41 -20 57 -28 43z"/>
<path d="M580 2540 c-12 -8 -12 -10 5 -10 18 -1 17 -2 -5 -15 -22 -12 -23 -14
-7 -21 25 -9 67 34 46 47 -18 11 -21 11 -39 -1z"/>
<path d="M828 2543 c6 -2 18 -2 25 0 6 3 1 5 -13 5 -14 0 -19 -2 -12 -5z"/>
<path d="M788 2423 c7 -3 16 -2 19 1 4 3 -2 6 -13 5 -11 0 -14 -3 -6 -6z"/>
<path d="M4447 2153 c-4 -3 -7 -13 -7 -22 1 -13 3 -13 11 2 11 19 8 33 -4 20z"/>
<path d="M4255 1760 l-20 -9 20 0 c11 0 27 4 35 9 13 9 13 10 0 9 -8 0 -24 -4
-35 -9z"/>
<path d="M385 1600 c-19 -8 -19 -9 2 -9 12 -1 25 4 28 9 7 12 -2 12 -30 0z"/>
<path d="M443 1593 c9 -2 25 -2 35 0 9 3 1 5 -18 5 -19 0 -27 -2 -17 -5z"/>
<path d="M4713 4623 c32 -2 81 -2 110 0 29 2 3 3 -58 3 -60 0 -84 -1 -52 -3z"/>
<path d="M4655 4530 c96 -10 235 -12 235 -2 0 4 -69 7 -153 8 -116 1 -136 -1
-82 -6z"/>
<path d="M4492 4445 c10 -11 390 -24 408 -14 9 5 -15 9 -61 9 -42 0 -138 3
-215 6 -76 4 -136 3 -132 -1z"/>
<path d="M4858 4363 c6 -2 18 -2 25 0 6 3 1 5 -13 5 -14 0 -19 -2 -12 -5z"/>
<path d="M4510 4350 c-28 -4 11 -7 105 -7 83 0 164 3 180 7 38 10 -223 10
-285 0z"/>
<path d="M2150 4320 c6 -11 13 -20 15 -20 3 0 5 9 5 20 0 11 -7 20 -15 20 -13
0 -14 -4 -5 -20z"/>
<path d="M2156 4221 c-4 -24 -5 -46 -2 -48 7 -7 19 63 14 79 -3 7 -8 -7 -12
-31z"/>
<path d="M4833 4253 c9 -2 25 -2 35 0 9 3 1 5 -18 5 -19 0 -27 -2 -17 -5z"/>
<path d="M4478 4238 c51 -6 129 -6 200 0 117 9 117 9 -83 9 -175 0 -190 -1
-117 -9z"/>
<path d="M1848 4138 c7 -7 66 -15 144 -20 73 -5 141 -13 150 -18 11 -6 28 -5
51 5 29 12 39 12 77 -1 32 -11 64 -13 125 -8 78 6 83 5 99 -17 12 -17 16 -19
16 -7 0 34 -50 53 -136 50 -44 -2 -92 2 -106 7 -16 6 -41 6 -69 0 -29 -7 -58
-7 -84 0 -65 16 -282 24 -267 9z"/>
<path d="M4365 4140 c-16 -4 95 -8 247 -9 175 -1 279 3 283 9 7 12 -483 12
-530 0z"/>
<path d="M1693 4100 c-34 -8 -88 -39 -80 -46 5 -5 117 43 117 51 0 3 -1 5 -2
4 -2 -1 -18 -4 -35 -9z"/>
<path d="M4180 4061 c66 -12 648 -22 695 -12 27 6 -35 9 -196 10 -130 0 -305
3 -390 6 -98 3 -138 1 -109 -4z"/>
<path d="M1850 4043 c0 -5 7 -16 14 -26 12 -15 15 -15 26 -3 6 9 9 20 5 26 -7
11 -45 14 -45 3z"/>
<path d="M1955 4042 c11 -5 81 -12 155 -16 74 -4 160 -9 190 -13 30 -3 52 -3
49 1 -3 3 -66 11 -140 16 -74 6 -165 12 -204 15 -44 3 -63 2 -50 -3z"/>
<path d="M2405 4010 c11 -5 27 -9 35 -9 13 -1 13 0 0 9 -8 5 -24 9 -35 9 l-20
0 20 -9z"/>
<path d="M4399 3976 c-2 -3 -82 -6 -177 -7 -307 -6 -145 -17 282 -21 431 -3
486 4 166 22 -203 11 -264 12 -271 6z"/>
<path d="M1885 3895 c5 -22 9 -56 9 -75 1 -19 6 -41 10 -49 5 -8 13 -28 17
-45 8 -31 8 -31 4 4 -8 73 -32 190 -40 197 -4 5 -4 -10 0 -32z"/>
<path d="M2440 3900 c0 -11 7 -20 15 -20 8 0 15 -9 15 -20 0 -23 32 -142 36
-137 5 5 -24 140 -36 171 -11 31 -30 34 -30 6z"/>
<path d="M2025 3890 c-9 -14 41 -23 90 -17 27 4 57 1 77 -7 25 -10 42 -11 68
-3 33 10 30 11 -50 18 -47 4 -106 10 -132 13 -26 3 -50 1 -53 -4z"/>
<path d="M2305 3880 c3 -5 19 -10 35 -10 32 0 34 -6 45 -85 4 -27 14 -64 24
-80 11 -19 20 -63 24 -120 4 -50 11 -103 17 -120 8 -24 9 -18 4 30 -12 133
-21 191 -36 220 -9 17 -21 63 -28 103 l-12 72 -39 0 c-24 0 -38 -4 -34 -10z"/>
<path d="M4115 3871 c-114 -6 -80 -7 180 -9 176 -1 385 -5 465 -8 110 -5 142
-4 134 5 -13 14 -560 22 -779 12z"/>
<path d="M2036 3845 c3 -16 12 -51 21 -77 8 -26 12 -57 8 -68 -3 -11 -3 -26 2
-34 15 -27 12 74 -3 110 -21 50 2 76 33 37 12 -16 12 -14 1 10 -7 18 -17 26
-26 22 -8 -3 -21 3 -28 12 -13 16 -14 15 -8 -12z"/>
<path d="M3928 3863 c7 -3 16 -2 19 1 4 3 -2 6 -13 5 -11 0 -14 -3 -6 -6z"/>
<path d="M4970 3859 c0 -5 5 -7 10 -4 6 3 10 8 10 11 0 2 -4 4 -10 4 -5 0 -10
-5 -10 -11z"/>
<path d="M2198 3833 c17 -2 47 -2 65 0 17 2 3 4 -33 4 -36 0 -50 -2 -32 -4z"/>
<path d="M2320 3820 c0 -5 4 -10 9 -10 6 0 13 5 16 10 3 6 -1 10 -9 10 -9 0
-16 -4 -16 -10z"/>
<path d="M4040 3781 c-53 -4 130 -8 409 -9 277 -1 502 0 499 3 -7 8 -805 13
-908 6z"/>
<path d="M2120 3770 c-11 -7 -7 -10 18 -10 20 0 31 4 27 10 -8 13 -26 13 -45
0z"/>
<path d="M1745 3742 c-16 -11 -37 -27 -45 -37 -10 -13 -2 -10 25 8 23 16 53
27 72 27 18 0 33 5 33 10 0 16 -53 11 -85 -8z"/>
<path d="M2114 3695 c-3 -8 -4 -35 -2 -60 4 -50 -17 -65 -26 -17 -2 15 -2 2 1
-28 2 -30 6 -83 7 -117 2 -81 16 -94 16 -16 0 34 7 73 16 91 11 23 12 36 5 51
-14 25 -14 67 -1 92 8 13 7 19 0 19 -6 0 -13 -7 -16 -15z"/>
<path d="M4560 3695 c-96 -10 -226 -13 -385 -10 -155 3 -226 1 -200 -5 65 -15
519 -11 698 5 114 10 173 12 197 5 47 -14 71 -13 47 1 -29 17 -198 19 -357 4z"/>
<path d="M265 3660 c-4 -6 7 -10 27 -9 27 0 30 2 13 9 -27 12 -33 12 -40 0z"/>
<path d="M1775 3651 c-22 -10 -51 -31 -65 -46 -22 -24 -19 -23 29 9 30 21 65
36 82 36 16 0 29 5 29 10 0 15 -31 12 -75 -9z"/>
<path d="M1931 3623 c-1 -29 3 -72 9 -95 5 -24 12 -65 16 -92 4 -33 9 -45 16
-38 6 6 7 16 0 28 -5 11 -13 59 -17 108 -10 115 -23 163 -24 89z"/>
<path d="M2367 3655 c-7 -18 6 -27 27 -19 19 7 21 -12 6 -50 -6 -16 -6 -26 0
-26 15 0 23 66 11 89 -13 24 -36 28 -44 6z"/>
<path d="M2522 3650 c0 -14 2 -19 5 -12 2 6 2 18 0 25 -3 6 -5 1 -5 -13z"/>
<path d="M4738 3643 c29 -2 74 -2 100 0 26 2 2 3 -53 3 -55 0 -76 -1 -47 -3z"/>
<path d="M4487 3634 c-4 -4 -140 -7 -304 -7 -214 1 -287 -2 -258 -9 41 -10
455 -3 650 11 l100 8 -91 1 c-50 1 -94 -1 -97 -4z"/>
<path d="M4918 3633 c6 -2 18 -2 25 0 6 3 1 5 -13 5 -14 0 -19 -2 -12 -5z"/>
<path d="M3768 3623 c7 -3 16 -2 19 1 4 3 -2 6 -13 5 -11 0 -14 -3 -6 -6z"/>
<path d="M288 3613 c12 -2 30 -2 40 0 9 3 -1 5 -23 4 -22 0 -30 -2 -17 -4z"/>
<path d="M1775 3601 c-16 -10 -39 -29 -50 -42 l-20 -24 20 16 c37 30 104 59
121 52 12 -4 15 -3 10 5 -11 18 -47 14 -81 -7z"/>
<path d="M2530 3607 c0 -10 7 -34 15 -54 8 -19 15 -48 15 -63 0 -30 35 -178
44 -188 11 -11 6 36 -9 78 -8 24 -18 68 -22 98 -6 56 -42 162 -43 129z"/>
<path d="M1794 3556 c-53 -23 -46 -34 9 -15 39 13 54 15 59 6 5 -8 8 -6 8 6 0
21 -31 22 -76 3z"/>
<path d="M4816 3553 c-4 -5 -197 -7 -429 -5 -232 1 -458 -2 -502 -7 -54 -5 92
-9 452 -10 304 0 534 3 537 8 10 16 -43 28 -58 14z"/>
<path d="M3623 3533 c9 -2 23 -2 30 0 6 3 -1 5 -18 5 -16 0 -22 -2 -12 -5z"/>
<path d="M288 3503 c6 -2 18 -2 25 0 6 3 1 5 -13 5 -14 0 -19 -2 -12 -5z"/>
<path d="M4860 3460 c0 -5 5 -10 10 -10 6 0 10 5 10 10 0 6 -4 10 -10 10 -5 0
-10 -4 -10 -10z"/>
<path d="M2271 3440 c-13 -11 -29 -20 -37 -20 -8 0 -14 -4 -14 -9 0 -15 55 7
76 30 22 25 6 24 -25 -1z"/>
<path d="M3500 3450 c-13 -9 -13 -10 0 -9 8 1 26 5 40 9 l25 8 -25 1 c-14 0
-32 -4 -40 -9z"/>
<path d="M3928 3453 c156 -2 408 -2 560 0 152 1 25 2 -283 2 -308 0 -433 -1
-277 -2z"/>
<path d="M2466 3390 c7 -48 10 -57 20 -47 3 3 -1 25 -10 49 l-16 43 6 -45z"/>
<path d="M3590 3371 c-14 -3 270 -9 630 -12 360 -3 671 -9 690 -13 22 -4 15 1
-20 13 -53 20 -77 20 -665 19 -335 0 -621 -3 -635 -7z"/>
<path d="M4530 3309 c-102 -3 -279 -8 -395 -10 -133 -2 -173 -5 -110 -7 156
-6 812 10 790 19 -22 8 -20 8 -285 -2z"/>
<path d="M3435 3291 c-41 -4 -65 -9 -58 -14 7 -4 77 -3 155 3 79 6 181 12 228
13 47 2 9 3 -85 3 -93 0 -201 -2 -240 -5z"/>
<path d="M4878 3259 c34 -6 60 -5 70 1 12 7 -3 9 -53 9 l-70 -1 53 -9z"/>
<path d="M3950 3230 c-228 -3 -377 -7 -330 -9 139 -6 760 1 830 9 l65 7 -75
-1 c-41 0 -262 -3 -490 -6z"/>
<path d="M4710 3230 c0 -5 16 -10 36 -10 21 0 33 4 29 10 -3 6 -19 10 -36 10
-16 0 -29 -4 -29 -10z"/>
<path d="M1584 3173 c-4 -16 -13 -36 -21 -45 -8 -9 -21 -34 -28 -55 -11 -33
-11 -39 3 -49 15 -11 14 -13 -8 -22 -14 -6 -33 -13 -43 -16 -10 -3 -17 -12
-14 -19 5 -15 -40 -119 -56 -129 -21 -13 -27 -9 -27 18 0 21 -4 25 -22 22 -31
-4 -36 -41 -9 -60 20 -14 20 -15 -15 -49 -41 -39 -60 -69 -45 -69 6 0 17 12
25 28 8 15 37 45 65 66 34 27 55 53 67 84 9 25 25 53 35 63 17 17 17 19 2 19
-23 0 -9 12 32 25 25 9 37 9 45 1 8 -8 13 -7 19 3 5 7 11 9 14 4 9 -14 -41
-91 -63 -98 -13 -4 -20 -15 -20 -31 0 -28 28 -44 41 -23 6 11 11 11 21 1 6 -6
21 -11 33 -11 16 1 17 2 3 6 -10 2 -18 9 -18 14 0 12 40 11 79 -2 26 -9 35 -8
50 5 10 9 21 13 24 10 20 -20 90 91 92 145 0 26 6 37 18 39 15 3 17 -1 12 -25
l-6 -28 18 28 c10 15 26 27 37 27 16 0 17 -3 8 -12 -7 -7 -12 -19 -11 -27 0
-12 4 -10 16 7 18 26 43 29 44 5 0 -15 3 -14 16 5 19 27 37 29 30 2 -3 -11 -1
-20 4 -20 4 0 13 9 19 20 6 11 20 20 32 20 21 0 21 0 -3 -26 l-24 -26 35 7
c19 4 40 14 47 22 10 13 17 14 43 3 19 -8 29 -18 26 -26 -6 -17 -5 -17 28 -4
36 13 33 24 -11 43 -27 11 -74 17 -163 18 -230 4 -225 4 -251 -38 -12 -21 -31
-48 -41 -60 -18 -20 -19 -22 -3 -31 12 -6 14 -11 6 -16 -6 -4 -11 -3 -11 3 0
6 -7 8 -15 5 -8 -4 -15 -14 -15 -24 0 -10 -7 -23 -15 -30 -13 -11 -15 -8 -15
18 0 29 21 58 33 45 7 -7 10 10 8 39 -1 9 8 22 21 29 32 16 31 15 18 39 -9 17
-17 20 -37 15 -15 -3 -39 -1 -56 6 -26 11 -31 10 -46 -8 -9 -12 -31 -28 -48
-37 -29 -15 -33 -15 -33 -1 0 8 -4 15 -10 15 -14 0 -13 37 1 46 6 3 16 0 21
-7 7 -10 8 -4 4 18 -6 37 5 44 61 36 54 -7 61 10 21 46 -42 38 -66 39 -74 4z
m54 -6 c4 -19 -6 -21 -27 -8 -16 10 -5 34 12 28 7 -2 13 -11 15 -20z m19 -33
c-3 -3 -12 -4 -19 -1 -8 3 -5 6 6 6 11 1 17 -2 13 -5z m32 -83 c8 -5 9 -11 3
-15 -5 -3 -15 1 -22 9 -14 16 -3 20 19 6z m61 -41 c0 -6 -14 -19 -32 -30 -34
-20 -58 -13 -58 17 0 11 8 14 30 11 17 -3 33 -1 36 4 7 11 24 10 24 -2z m-93
-35 c3 -9 3 -18 1 -21 -9 -9 -38 8 -38 22 0 19 29 18 37 -1z m-23 -41 c8 -3
12 -12 9 -20 -3 -10 0 -12 10 -8 8 3 18 0 22 -6 4 -7 -4 -10 -23 -8 -17 1 -37
-4 -46 -11 -23 -19 -28 -10 -14 27 13 33 17 36 42 26z m-254 -84 c0 -21 -15
-27 -25 -10 -7 12 2 30 16 30 5 0 9 -9 9 -20z"/>
<path d="M4865 3189 c38 -6 63 -5 69 1 7 7 -14 10 -59 9 l-70 -1 60 -9z"/>
<path d="M3480 3177 c3 -3 68 -11 145 -17 162 -14 1159 -20 1147 -8 -9 9 -155
14 -168 5 -12 -7 -957 10 -1054 19 -41 4 -73 4 -70 1z"/>
<path d="M4728 3113 c23 -2 61 -2 85 0 23 2 4 4 -43 4 -47 0 -66 -2 -42 -4z"/>
<path d="M3673 3101 c57 -19 643 -44 626 -27 -2 3 -136 10 -297 16 -161 6
-307 13 -325 15 -32 5 -32 5 -4 -4z"/>
<path d="M4472 3059 c49 -4 111 -12 138 -18 28 -6 70 -10 93 -10 l42 2 -45 7
c-147 25 -182 29 -245 28 l-70 -1 87 -8z"/>
<path d="M255 3030 c-5 -8 28 -20 59 -20 26 0 16 9 -23 20 -17 4 -33 5 -36 0z"/>
<path d="M3820 3022 c0 -5 48 -12 108 -15 164 -10 688 -21 682 -14 -3 3 -174
11 -380 17 -206 6 -383 13 -392 16 -10 3 -18 1 -18 -4z"/>
<path d="M2160 3005 c0 -8 2 -15 4 -15 2 0 6 7 10 15 3 8 1 15 -4 15 -6 0 -10
-7 -10 -15z"/>
<path d="M2377 2993 c-4 -3 -7 -11 -7 -17 0 -6 5 -5 12 2 6 6 9 14 7 17 -3 3
-9 2 -12 -2z"/>
<path d="M4700 2980 c-33 -4 -40 -7 -25 -12 11 -4 38 -3 60 0 52 10 23 19 -35
12z"/>
<path d="M4788 2973 c6 -2 18 -2 25 0 6 3 1 5 -13 5 -14 0 -19 -2 -12 -5z"/>
<path d="M1884 2946 c-8 -22 3 -33 18 -18 9 9 9 15 0 24 -9 9 -13 7 -18 -6z"/>
<path d="M1920 2950 c0 -5 5 -10 11 -10 5 0 7 5 4 10 -3 6 -8 10 -11 10 -2 0
-4 -4 -4 -10z"/>
<path d="M1966 2945 c4 -8 12 -15 20 -15 8 0 11 6 8 15 -4 8 -12 15 -20 15 -8
0 -11 -6 -8 -15z"/>
<path d="M2070 2950 c0 -5 11 -10 25 -10 14 0 25 5 25 10 0 6 -11 10 -25 10
-14 0 -25 -4 -25 -10z"/>
<path d="M2157 2946 c-6 -15 1 -26 15 -26 4 0 8 9 8 20 0 23 -15 27 -23 6z"/>
<path d="M2010 2940 c0 -5 7 -10 16 -10 8 0 12 5 9 10 -3 6 -10 10 -16 10 -5
0 -9 -4 -9 -10z"/>
<path d="M2342 2920 c0 -14 2 -19 5 -12 2 6 2 18 0 25 -3 6 -5 1 -5 -13z"/>
<path d="M1505 2919 c-4 -6 -5 -12 -2 -15 2 -3 7 2 10 11 7 17 1 20 -8 4z"/>
<path d="M2174 2887 c-28 -32 -46 -67 -35 -67 5 0 13 10 16 23 4 12 17 30 28
39 12 9 19 19 16 22 -3 3 -14 -4 -25 -17z"/>
<path d="M1832 2889 c2 -7 10 -15 17 -17 8 -3 12 1 9 9 -2 7 -10 15 -17 17 -8
3 -12 -1 -9 -9z"/>
<path d="M1980 2890 c0 -5 5 -10 10 -10 6 0 10 5 10 10 0 6 -4 10 -10 10 -5 0
-10 -4 -10 -10z"/>
<path d="M2062 2888 c5 -15 28 -18 29 -3 0 6 -7 12 -17 13 -10 3 -15 -1 -12
-10z"/>
<path d="M3940 2872 c0 -10 203 -24 341 -22 56 1 79 -3 88 -14 9 -11 25 -13
64 -9 29 3 59 10 67 15 9 5 -9 6 -48 2 -36 -3 -68 -2 -75 4 -6 5 -66 12 -132
16 -66 3 -162 9 -212 12 -62 5 -93 3 -93 -4z"/>
<path d="M2110 2850 c0 -5 5 -10 10 -10 6 0 10 5 10 10 0 6 -4 10 -10 10 -5 0
-10 -4 -10 -10z"/>
<path d="M2302 2840 c0 -14 2 -19 5 -12 2 6 2 18 0 25 -3 6 -5 1 -5 -13z"/>
<path d="M1742 2838 c-6 -6 -53 -14 -104 -18 -103 -8 -85 -13 32 -10 71 2 100
11 100 31 0 13 -14 11 -28 -3z"/>
<path d="M1815 2841 c-16 -15 18 -21 88 -15 50 3 93 2 110 -5 22 -9 27 -8 27
4 0 16 -13 17 -148 19 -40 1 -75 -1 -77 -3z"/>
<path d="M1495 2830 c-3 -5 -1 -10 4 -10 6 0 11 5 11 10 0 6 -2 10 -4 10 -3 0
-8 -4 -11 -10z"/>
<path d="M1956 2805 c-11 -29 -7 -55 9 -55 11 0 13 8 8 33 -7 40 -9 42 -17 22z"/>
<path d="M3965 2810 c-4 -6 10 -10 35 -10 25 0 39 4 35 10 -3 6 -19 10 -35 10
-16 0 -32 -4 -35 -10z"/>
<path d="M2070 2801 c0 -17 18 -21 24 -6 3 9 0 15 -9 15 -8 0 -15 -4 -15 -9z"/>
<path d="M4245 2795 l-40 -13 50 5 c28 3 59 10 70 14 36 14 -36 9 -80 -6z"/>
<path d="M3915 2790 c3 -5 8 -10 11 -10 2 0 4 5 4 10 0 6 -5 10 -11 10 -5 0
-7 -4 -4 -10z"/>
<path d="M1455 2780 c-3 -6 1 -10 9 -10 9 0 16 -4 16 -9 0 -5 30 -9 66 -9 65
-1 75 9 22 22 -15 3 -29 2 -33 -3 -3 -6 -19 -4 -40 5 -21 9 -36 10 -40 4z"/>
<path d="M1739 2777 c-13 -4 -35 -6 -49 -3 -14 2 -32 1 -40 -5 -10 -5 17 -9
78 -9 50 0 92 4 92 9 0 13 -54 19 -81 8z"/>
<path d="M2251 2783 c0 -5 4 -17 9 -28 8 -18 9 -17 9 8 1 15 -3 27 -9 27 -5 0
-10 -3 -9 -7z"/>
<path d="M4868 2783 c7 -3 16 -2 19 1 4 3 -2 6 -13 5 -11 0 -14 -3 -6 -6z"/>
<path d="M1874 2765 c26 -19 47 -19 40 0 -4 8 -18 15 -33 15 -25 -1 -25 -1 -7
-15z"/>
<path d="M4168 2773 c7 -3 16 -2 19 1 4 3 -2 6 -13 5 -11 0 -14 -3 -6 -6z"/>
<path d="M2005 2760 c-3 -5 -1 -10 4 -10 6 0 11 5 11 10 0 6 -2 10 -4 10 -3 0
-8 -4 -11 -10z"/>
<path d="M4070 2760 c-24 -8 -24 -8 5 -8 17 0 41 4 55 8 24 8 24 8 -5 8 -16 0
-41 -4 -55 -8z"/>
<path d="M2043 2733 c1 -18 -3 -27 -10 -25 -8 1 -13 -9 -13 -27 0 -18 -6 -31
-16 -35 -9 -4 -15 -9 -12 -11 11 -11 38 8 38 27 0 12 6 26 14 32 21 17 30 66
12 66 -10 0 -14 -9 -13 -27z"/>
<path d="M2206 2723 c-4 -9 -2 -21 4 -27 7 -7 10 -2 10 17 0 31 -5 34 -14 10z"/>
<path d="M1443 2713 c-36 -14 -2 -23 88 -23 62 0 98 4 94 10 -3 5 -33 8 -65 6
-33 -2 -62 0 -66 5 -6 10 -31 11 -51 2z"/>
<path d="M1660 2706 c0 -9 7 -16 16 -16 9 0 14 5 12 12 -6 18 -28 21 -28 4z"/>
<path d="M1720 2705 c0 -8 5 -15 10 -15 6 0 10 7 10 15 0 8 -4 15 -10 15 -5 0
-10 -7 -10 -15z"/>
<path d="M1790 2705 c0 -8 7 -15 16 -15 14 0 14 3 4 15 -7 8 -14 15 -16 15 -2
0 -4 -7 -4 -15z"/>
<path d="M1840 2700 c0 -5 7 -10 16 -10 8 0 12 5 9 10 -3 6 -10 10 -16 10 -5
0 -9 -4 -9 -10z"/>
<path d="M1923 2693 c9 -9 20 -13 24 -9 4 4 1 11 -7 16 -25 16 -35 11 -17 -7z"/>
<path d="M1375 2649 c-10 -16 -2 -20 56 -25 60 -6 92 7 72 27 -10 10 -14 9
-19 -4 -8 -21 -44 -22 -44 -2 0 18 -55 21 -65 4z"/>
<path d="M1557 2653 c-13 -12 -7 -23 13 -23 13 0 18 5 14 15 -7 16 -17 19 -27
8z"/>
<path d="M1630 2652 c0 -15 32 -24 44 -12 7 7 7 10 -1 10 -6 0 -18 3 -27 6 -9
3 -16 2 -16 -4z"/>
<path d="M1740 2651 c-21 -4 -30 -9 -23 -14 6 -4 22 -3 35 2 31 12 98 12 98 0
0 -5 11 -9 24 -9 13 0 26 -6 29 -12 3 -10 10 -8 23 5 18 16 17 17 -19 17 -23
0 -36 4 -32 10 7 11 -76 12 -135 1z"/>
<path d="M2160 2640 c0 -5 5 -10 11 -10 5 0 7 5 4 10 -3 6 -8 10 -11 10 -2 0
-4 -4 -4 -10z"/>
<path d="M211 2611 c-9 -6 5 -8 37 -8 28 0 49 4 46 9 -7 11 -65 10 -83 -1z"/>
<path d="M4768 2613 c12 -2 30 -2 40 0 9 3 -1 5 -23 4 -22 0 -30 -2 -17 -4z"/>
<path d="M1761 2587 c-16 -20 -5 -25 44 -22 39 3 64 25 28 25 -10 0 -27 3 -39
6 -12 3 -26 -1 -33 -9z"/>
<path d="M1535 2580 c-8 -3 -58 -4 -112 -3 -54 0 -102 -2 -108 -5 -14 -9 75
-19 100 -12 11 4 86 6 168 5 81 -1 147 2 147 7 0 10 -4 10 -103 12 -43 0 -84
-1 -92 -4z"/>
<path d="M1930 2574 c0 -9 5 -14 12 -12 18 6 21 28 4 28 -9 0 -16 -7 -16 -16z"/>
<path d="M2125 2570 c3 -5 8 -10 11 -10 2 0 4 5 4 10 0 6 -5 10 -11 10 -5 0
-7 -4 -4 -10z"/>
<path d="M4808 2533 c7 -3 16 -2 19 1 4 3 -2 6 -13 5 -11 0 -14 -3 -6 -6z"/>
<path d="M1286 2521 c-3 -5 8 -11 25 -15 37 -7 62 4 33 15 -27 11 -52 11 -58
0z"/>
<path d="M1440 2521 c-17 -6 -4 -8 42 -9 37 0 80 3 95 8 21 6 11 8 -42 8 -38
0 -81 -3 -95 -7z"/>
<path d="M1645 2520 c3 -5 12 -7 20 -3 21 7 19 13 -6 13 -11 0 -18 -4 -14 -10z"/>
<path d="M1713 2524 c9 -10 127 -11 127 -1 0 4 -30 7 -67 7 -36 0 -63 -3 -60
-6z"/>
<path d="M1897 2524 c-4 -4 -7 -14 -7 -23 0 -11 3 -12 11 -4 6 6 10 16 7 23
-2 6 -7 8 -11 4z"/>
<path d="M2095 2510 c3 -5 8 -10 11 -10 2 0 4 5 4 10 0 6 -5 10 -11 10 -5 0
-7 -4 -4 -10z"/>
<path d="M1566 2491 c-5 -8 -3 -17 5 -22 18 -11 26 -11 34 1 3 6 0 10 -9 10
-8 0 -16 5 -18 12 -3 9 -6 9 -12 -1z"/>
<path d="M1660 2480 c0 -5 12 -10 28 -9 24 0 25 1 7 9 -27 12 -35 12 -35 0z"/>
<path d="M1743 2483 c9 -2 17 -9 17 -14 0 -6 5 -7 10 -4 19 12 10 25 -17 24
-17 -1 -21 -3 -10 -6z"/>
<path d="M220 2470 c-12 -8 -11 -10 5 -9 11 1 34 5 50 9 l30 8 -35 1 c-19 0
-42 -4 -50 -9z"/>
<path d="M1470 2469 c0 -5 9 -9 20 -9 11 0 20 2 20 4 0 2 -9 6 -20 9 -11 3
-20 1 -20 -4z"/>
<path d="M1220 2460 c0 -6 25 -10 58 -9 41 0 51 3 37 9 -28 12 -95 12 -95 0z"/>
<path d="M1370 2460 c20 -13 43 -13 35 0 -3 6 -16 10 -28 10 -18 0 -19 -2 -7
-10z"/>
<path d="M1805 2450 c3 -5 13 -10 21 -10 8 0 12 5 9 10 -3 6 -13 10 -21 10 -8
0 -12 -4 -9 -10z"/>
<path d="M2060 2450 c0 -5 5 -10 11 -10 5 0 7 5 4 10 -3 6 -8 10 -11 10 -2 0
-4 -4 -4 -10z"/>
<path d="M1485 2431 c-27 -3 -45 -9 -40 -12 15 -9 136 2 129 12 -5 9 -9 9 -89
0z"/>
<path d="M1682 2430 c-12 -5 -28 -7 -36 -4 -8 3 -17 1 -20 -5 -5 -7 13 -9 51
-7 32 2 57 7 56 12 -3 13 -24 14 -51 4z"/>
<path d="M1861 2424 c0 -11 3 -14 6 -6 3 7 2 16 -1 19 -3 4 -6 -2 -5 -13z"/>
<path d="M1202 2411 c-10 -6 -10 -10 2 -20 10 -9 16 -9 21 -1 10 16 -7 31 -23
21z"/>
<path d="M1260 2410 c0 -5 10 -10 23 -10 18 0 19 2 7 10 -19 13 -30 13 -30 0z"/>
<path d="M1795 2410 c-3 -5 -1 -10 4 -10 6 0 11 5 11 10 0 6 -2 10 -4 10 -3 0
-8 -4 -11 -10z"/>
<path d="M1363 2403 c9 -2 23 -2 30 0 6 3 -1 5 -18 5 -16 0 -22 -2 -12 -5z"/>
<path d="M2025 2390 c3 -5 8 -10 11 -10 2 0 4 5 4 10 0 6 -5 10 -11 10 -5 0
-7 -4 -4 -10z"/>
<path d="M1829 2383 c-1 -5 -1 -15 0 -25 1 -9 -7 -23 -19 -31 -13 -9 -18 -20
-14 -31 3 -9 1 -16 -5 -16 -6 0 -11 -5 -11 -11 0 -8 5 -7 15 1 9 7 14 19 11
27 -3 8 1 16 8 19 12 4 36 53 36 70 0 8 -20 4 -21 -3z"/>
<path d="M1428 2363 c-48 -7 -31 -19 23 -17 46 2 85 14 46 14 -8 0 -21 2 -29
3 -7 2 -25 2 -40 0z"/>
<path d="M1595 2349 c33 -4 67 -6 77 -3 9 3 19 0 23 -6 9 -15 25 -12 25 5 0
12 -16 15 -92 14 -93 -2 -93 -2 -33 -10z"/>
<path d="M1735 2350 c3 -5 11 -10 16 -10 6 0 7 5 4 10 -3 6 -11 10 -16 10 -6
0 -7 -4 -4 -10z"/>
<path d="M1137 2343 c-13 -12 -7 -23 13 -23 13 0 18 5 14 15 -7 16 -17 19 -27
8z"/>
<path d="M1218 2343 c-10 -3 -18 -9 -18 -14 0 -12 37 -12 45 0 7 12 -5 19 -27
14z"/>
<path d="M1301 2340 c9 -5 28 -6 45 0 27 8 26 8 -16 9 -32 0 -40 -2 -29 -9z"/>
<path d="M1980 2331 c0 -5 5 -13 10 -16 6 -3 10 -2 10 4 0 5 -4 13 -10 16 -5
3 -10 2 -10 -4z"/>
<path d="M1521 2309 c-13 -5 -32 -7 -42 -4 -9 3 -20 1 -24 -5 -8 -13 35 -13
69 0 17 6 27 6 32 -1 4 -7 22 -9 44 -5 27 4 41 2 50 -10 14 -15 65 -11 85 7
12 12 3 11 -31 -1 -22 -9 -29 -8 -37 5 -6 11 -20 15 -42 13 -19 -1 -37 1 -41
5 -10 9 -33 8 -63 -4z"/>
<path d="M1370 2301 c0 -11 39 -25 47 -18 3 3 2 10 -2 16 -8 13 -45 15 -45 2z"/>
<path d="M1230 2290 c0 -5 5 -10 10 -10 6 0 10 5 10 10 0 6 -4 10 -10 10 -5 0
-10 -4 -10 -10z"/>
<path d="M1302 2288 c2 -6 10 -14 16 -16 7 -2 10 2 6 12 -7 18 -28 22 -22 4z"/>
<path d="M1951 2274 c0 -11 3 -14 6 -6 3 7 2 16 -1 19 -3 4 -6 -2 -5 -13z"/>
<path d="M1115 2270 c3 -5 15 -10 26 -10 11 0 17 5 14 10 -3 6 -15 10 -26 10
-11 0 -17 -4 -14 -10z"/>
<path d="M1060 2246 c0 -9 71 -39 76 -33 7 7 -20 25 -49 32 -15 4 -27 4 -27 1z"/>
<path d="M1437 2242 c-9 -2 -15 -8 -12 -13 8 -12 45 -12 45 0 0 13 -12 18 -33
13z"/>
<path d="M1523 2243 c-20 -7 -15 -23 7 -23 11 0 20 4 20 9 0 13 -12 19 -27 14z"/>
<path d="M1600 2242 c0 -12 23 -32 37 -32 7 0 13 5 13 10 0 6 -7 10 -15 10 -8
0 -15 5 -15 10 0 6 -4 10 -10 10 -5 0 -10 -4 -10 -8z"/>
<path d="M1720 2231 c0 -25 6 -27 13 -6 4 8 2 17 -3 20 -6 4 -10 -3 -10 -14z"/>
<path d="M1175 2230 c-16 -4 26 -6 94 -4 68 2 126 6 129 9 8 8 -188 4 -223 -5z"/>
<path d="M1910 2225 c0 -8 4 -15 10 -15 5 0 7 7 4 15 -4 8 -8 15 -10 15 -2 0
-4 -7 -4 -15z"/>
<path d="M1750 2214 c0 -8 5 -12 10 -9 6 3 10 10 10 16 0 5 -4 9 -10 9 -5 0
-10 -7 -10 -16z"/>
<path d="M1493 2183 c9 -9 19 -14 23 -11 10 10 -6 28 -24 28 -15 0 -15 -1 1
-17z"/>
<path d="M1033 2175 c2 -5 9 -10 15 -9 7 1 49 2 94 3 45 0 79 4 76 7 -11 10
-188 9 -185 -1z"/>
<path d="M1260 2180 c0 -5 14 -10 32 -10 36 0 35 4 -4 14 -17 4 -28 2 -28 -4z"/>
<path d="M1350 2183 c14 -3 29 -9 35 -14 15 -15 28 -10 15 6 -7 8 -27 14 -44
14 -27 -2 -28 -2 -6 -6z"/>
<path d="M1880 2170 c0 -5 5 -10 11 -10 5 0 7 5 4 10 -3 6 -8 10 -11 10 -2 0
-4 -4 -4 -10z"/>
<path d="M65 2160 c-3 -6 1 -7 9 -4 18 7 21 14 7 14 -6 0 -13 -4 -16 -10z"/>
<path d="M1685 2160 c3 -5 11 -10 16 -10 6 0 7 5 4 10 -3 6 -11 10 -16 10 -6
0 -7 -4 -4 -10z"/>
<path d="M4613 2163 c15 -2 39 -2 55 0 15 2 2 4 -28 4 -30 0 -43 -2 -27 -4z"/>
<path d="M4708 2163 c6 -2 18 -2 25 0 6 3 1 5 -13 5 -14 0 -19 -2 -12 -5z"/>
<path d="M1580 2150 c0 -5 9 -10 19 -10 11 0 23 5 26 10 4 6 -5 10 -19 10 -14
0 -26 -4 -26 -10z"/>
<path d="M4633 2093 c9 -2 23 -2 30 0 6 3 -1 5 -18 5 -16 0 -22 -2 -12 -5z"/>
<path d="M1825 2060 c3 -5 8 -10 11 -10 2 0 4 5 4 10 0 6 -5 10 -11 10 -5 0
-7 -4 -4 -10z"/>
<path d="M1790 2005 c0 -8 5 -15 10 -15 6 0 10 7 10 15 0 8 -4 15 -10 15 -5 0
-10 -7 -10 -15z"/>
<path d="M1766 1965 c4 -8 11 -15 16 -15 6 0 5 6 -2 15 -7 8 -14 15 -16 15 -2
0 -1 -7 2 -15z"/>
<path d="M1740 1920 c0 -5 5 -10 11 -10 5 0 7 5 4 10 -3 6 -8 10 -11 10 -2 0
-4 -4 -4 -10z"/>
<path d="M1710 1870 c0 -5 5 -10 10 -10 6 0 10 5 10 10 0 6 -4 10 -10 10 -5 0
-10 -4 -10 -10z"/>
<path d="M3838 1873 c7 -3 16 -2 19 1 4 3 -2 6 -13 5 -11 0 -14 -3 -6 -6z"/>
<path d="M1680 1826 c0 -9 5 -16 10 -16 6 0 10 4 10 9 0 6 -4 13 -10 16 -5 3
-10 -1 -10 -9z"/>
<path d="M1655 1780 c3 -5 8 -10 11 -10 2 0 4 5 4 10 0 6 -5 10 -11 10 -5 0
-7 -4 -4 -10z"/>
<path d="M1630 1742 c6 -13 14 -21 18 -18 3 4 -2 14 -12 24 -18 16 -18 16 -6
-6z"/>
<path d="M1595 1690 c3 -5 14 -10 23 -10 15 0 15 2 2 10 -20 13 -33 13 -25 0z"/>
<path d="M1575 1660 c10 -11 20 -20 23 -20 3 0 -3 9 -13 20 -10 11 -20 20 -23
20 -3 0 3 -9 13 -20z"/>
<path d="M138 1623 c18 -2 45 -2 60 0 15 2 0 4 -33 4 -33 0 -45 -2 -27 -4z"/>
<path d="M4483 1493 c15 -2 39 -2 55 0 15 2 2 4 -28 4 -30 0 -43 -2 -27 -4z"/>
<path d="M4403 1483 c9 -2 25 -2 35 0 9 3 1 5 -18 5 -19 0 -27 -2 -17 -5z"/>
<path d="M4360 1471 c0 -6 -24 -12 -52 -14 -46 -3 -43 -3 17 -4 39 -1 64 1 57
4 -6 2 -10 9 -6 14 3 5 0 9 -5 9 -6 0 -11 -4 -11 -9z"/>
<path d="M4203 1443 c9 -2 25 -2 35 0 9 3 1 5 -18 5 -19 0 -27 -2 -17 -5z"/>
<path d="M4233 1413 c9 -2 23 -2 30 0 6 3 -1 5 -18 5 -16 0 -22 -2 -12 -5z"/>
<path d="M3945 1400 c-11 -4 33 -6 100 -3 66 3 122 7 124 9 9 8 -205 2 -224
-6z"/>
<path d="M230 1370 c0 -5 12 -10 28 -9 24 0 25 1 7 9 -27 12 -35 12 -35 0z"/>
<path d="M331 1280 c10 -6 45 -6 90 -1 l74 8 -90 1 c-61 1 -85 -2 -74 -8z"/>
<path d="M860 1281 c-27 -6 -13 -9 58 -10 54 0 92 -5 92 -11 0 -6 56 -10 147
-10 80 0 144 2 141 5 -3 3 -72 10 -154 15 -82 6 -171 12 -199 14 -27 2 -66 1
-85 -3z"/>
<path d="M508 1273 c6 -2 18 -2 25 0 6 3 1 5 -13 5 -14 0 -19 -2 -12 -5z"/>
<path d="M582 1270 c10 -6 25 -7 40 -1 20 9 18 10 -17 10 -31 0 -36 -2 -23 -9z"/>
<path d="M693 1263 c20 -2 54 -2 75 0 20 2 3 4 -38 4 -41 0 -58 -2 -37 -4z"/>
<path d="M1678 1213 c6 -2 18 -2 25 0 6 3 1 5 -13 5 -14 0 -19 -2 -12 -5z"/>
<path d="M1805 1210 c-4 -6 30 -10 97 -9 92 2 97 3 48 9 -81 12 -138 11 -145
0z"/>
<path d="M3690 1210 l-45 -7 50 0 c28 0 82 3 120 7 l70 7 -75 0 c-41 0 -95 -3
-120 -7z"/>
<path d="M665 1190 c-4 -6 5 -10 20 -10 15 0 24 4 20 10 -3 6 -12 10 -20 10
-8 0 -17 -4 -20 -10z"/>
<path d="M878 1193 c12 -2 30 -2 40 0 9 3 -1 5 -23 4 -22 0 -30 -2 -17 -4z"/>
<path d="M1110 1190 c-240 -8 -169 -12 255 -15 219 -1 327 1 275 6 -126 11
-332 15 -530 9z"/>
<path d="M533 1183 c15 -2 39 -2 55 0 15 2 2 4 -28 4 -30 0 -43 -2 -27 -4z"/>
<path d="M1743 1183 c9 -2 25 -2 35 0 9 3 1 5 -18 5 -19 0 -27 -2 -17 -5z"/>
<path d="M1188 1153 c7 -3 16 -2 19 1 4 3 -2 6 -13 5 -11 0 -14 -3 -6 -6z"/>
<path d="M4178 1153 c6 -2 18 -2 25 0 6 3 1 5 -13 5 -14 0 -19 -2 -12 -5z"/>
<path d="M1321 1146 c2 -2 47 -6 99 -9 54 -3 86 -2 75 3 -19 8 -183 14 -174 6z"/>
<path d="M1613 1143 c31 -2 83 -2 115 0 31 2 5 3 -58 3 -63 0 -89 -1 -57 -3z"/>
<path d="M2468 1103 c12 -2 32 -2 45 0 12 2 2 4 -23 4 -25 0 -35 -2 -22 -4z"/>
<path d="M818 1061 c-36 -3 -70 -10 -75 -15 -4 -5 3 -5 17 0 14 5 390 8 835 6
446 -1 844 1 885 5 41 5 -301 9 -760 9 -459 1 -865 -1 -902 -5z"/>
<path d="M4098 1063 c7 -3 16 -2 19 1 4 3 -2 6 -13 5 -11 0 -14 -3 -6 -6z"/>
<path d="M3825 1050 l-90 -6 85 -1 c47 0 117 3 155 7 l70 7 -65 0 c-36 -1
-105 -4 -155 -7z"/>
<path d="M693 1043 c9 -2 23 -2 30 0 6 3 -1 5 -18 5 -16 0 -22 -2 -12 -5z"/>
<path d="M3627 1033 c18 -2 50 -2 70 0 21 2 7 4 -32 4 -38 0 -55 -2 -38 -4z"/>
<path d="M3410 1020 c-54 -7 -54 -7 -10 -7 25 -1 72 3 105 7 l60 7 -50 0 c-27
0 -75 -3 -105 -7z"/>
<path d="M2044 1004 c-6 -2 -69 -9 -140 -14 -108 -7 -89 -8 121 -4 138 2 326
4 419 4 93 0 167 2 165 4 -6 6 -553 16 -565 10z"/>
<path d="M3273 1003 c15 -2 39 -2 55 0 15 2 2 4 -28 4 -30 0 -43 -2 -27 -4z"/>
<path d="M1486 991 c5 -4 33 -17 63 -27 29 -10 56 -26 59 -34 3 -8 10 -18 15
-21 15 -11 -3 -31 -23 -26 -10 2 -42 -1 -71 -8 l-54 -13 83 -1 c47 -1 82 -5
82 -11 0 -6 -65 -11 -172 -12 l-173 -1 212 -8 c205 -7 353 -23 353 -38 0 -4
46 -18 103 -31 96 -21 131 -33 217 -73 33 -15 14 -16 -322 -16 -236 -1 -358
-4 -358 -11 0 -6 -10 -8 -22 -6 -13 3 -74 10 -136 17 -121 13 -172 34 -172 68
0 11 -5 23 -11 26 -7 5 -9 -3 -7 -21 4 -37 58 -74 107 -74 20 0 52 -4 71 -10
19 -5 112 -14 205 -20 94 -6 202 -13 240 -16 39 -3 81 -5 95 -5 366 3 469 1
495 -9 33 -12 99 -27 185 -40 94 -15 239 -49 268 -63 15 -8 50 -17 78 -20 47
-5 134 -31 414 -122 58 -19 140 -38 184 -44 43 -5 83 -14 89 -20 6 -6 19 -11
29 -11 10 0 51 -11 90 -25 39 -14 72 -25 74 -25 1 0 7 14 15 31 11 28 10 33
-6 45 -10 8 -25 14 -33 14 -7 0 -53 14 -100 31 -48 16 -161 50 -252 74 -169
44 -338 100 -355 116 -13 13 55 11 192 -5 167 -21 1055 -37 1072 -21 2 3 -88
5 -200 5 -305 1 -816 18 -879 30 -30 6 -109 12 -176 14 -99 3 -127 7 -160 25
l-39 21 65 1 c36 0 97 1 135 1 39 1 269 -1 513 -3 265 -2 430 0 410 5 -18 5
-163 8 -323 7 -246 -2 -734 10 -925 23 -53 3 -52 2 55 -33 61 -20 128 -45 150
-55 51 -22 293 -101 408 -132 48 -13 96 -28 107 -34 10 -6 41 -12 67 -14 66
-6 207 -59 211 -80 6 -26 -23 -29 -74 -6 -27 11 -82 28 -123 36 -41 9 -104 26
-139 40 -35 13 -73 24 -84 24 -20 0 -397 116 -406 125 -3 3 3 5 14 5 20 1 -41
24 -166 65 -41 13 -106 35 -145 49 -38 14 -82 26 -96 26 -14 0 -58 11 -98 25
-41 13 -97 27 -125 31 -28 3 -68 17 -88 30 -21 13 -52 24 -70 24 -52 0 -147
26 -221 59 -50 22 -84 31 -123 31 -61 0 -147 30 -106 37 12 3 20 9 17 14 -8
13 8 11 79 -6 110 -28 186 -56 183 -68 -1 -7 10 -12 28 -11 42 2 157 -25 175
-41 8 -7 38 -16 65 -19 28 -4 76 -14 109 -22 32 -8 60 -13 63 -11 2 3 -46 17
-107 31 -62 15 -124 33 -138 42 -26 14 -23 15 43 9 39 -3 324 -7 635 -10 311
-3 617 -8 680 -10 63 -3 196 -7 295 -9 99 -3 201 -10 227 -16 89 -23 114 -77
57 -124 -35 -30 -31 -33 11 -11 69 36 42 104 -56 144 -58 24 -64 24 -549 33
-547 9 -1027 24 -1065 33 -22 5 -23 4 -5 -5 14 -7 -41 -9 -188 -5 l-208 6
-102 38 c-129 49 -238 79 -346 97 -102 16 -108 17 -95 5z m277 -148 c-7 -2
-21 -2 -30 0 -10 3 -4 5 12 5 17 0 24 -2 18 -5z m102 -3 c8 -13 -15 -13 -35 0
-12 8 -11 10 7 10 12 0 25 -4 28 -10z m200 -80 c3 -5 -1 -10 -9 -10 -9 0 -16
5 -16 10 0 6 4 10 9 10 6 0 13 -4 16 -10z m175 -50 c8 -5 12 -12 9 -15 -8 -8
-39 5 -39 16 0 11 11 11 30 -1z m-475 -60 c4 -6 -14 -10 -44 -10 -28 0 -51 4
-51 8 0 11 88 13 95 2z m140 1 c9 -15 -31 -23 -82 -15 -37 5 -44 9 -28 15 28
11 103 11 110 0z m660 -11 c18 -8 18 -9 -5 -9 -14 0 -32 4 -40 9 -12 8 -12 10
5 9 11 0 29 -4 40 -9z m1215 -354 c0 -8 -5 -18 -11 -22 -14 -8 -33 11 -25 25
10 16 36 13 36 -3z"/>
<path d="M1733 993 c9 -2 23 -2 30 0 6 3 -1 5 -18 5 -16 0 -22 -2 -12 -5z"/>
<path d="M2673 993 c26 -2 68 -2 95 0 26 2 4 3 -48 3 -52 0 -74 -1 -47 -3z"/>
<path d="M3008 993 c39 -2 105 -2 145 0 39 1 7 3 -73 3 -80 0 -112 -2 -72 -3z"/>
<path d="M2075 929 c100 -24 1656 -34 1915 -11 47 4 -338 7 -855 7 -517 0
-976 3 -1020 7 -61 5 -71 5 -40 -3z"/>
<path d="M4128 933 c18 -2 45 -2 60 0 15 2 0 4 -33 4 -33 0 -45 -2 -27 -4z"/>
<path d="M2338 863 c7 -3 16 -2 19 1 4 3 -2 6 -13 5 -11 0 -14 -3 -6 -6z"/>
<path d="M2570 680 c8 -5 24 -9 35 -9 l20 0 -20 9 c-11 5 -27 9 -35 9 -13 1
-13 0 0 -9z"/>
<path d="M4363 533 c9 -2 23 -2 30 0 6 3 -1 5 -18 5 -16 0 -22 -2 -12 -5z"/>
</g>
</svg>
